<svg xmlns="http://www.w3.org/2000/svg" width="116.5" height="116.5" viewBox="0 0 116.5 116.5">
  <g id="application" transform="translate(-8.5 503.998)">
    <path id="Path_288" data-name="Path 288" d="M14.8-503.646a9.842,9.842,0,0,0-5.666,5.055L8.5-497.3v103.216l.682,1.411a10.611,10.611,0,0,0,4.491,4.491l1.411.682H69.4l1.411-.682a10.611,10.611,0,0,0,4.491-4.491l.682-1.411.071-16.388.071-16.411H91.967l5.643,5.643,5.643,5.643,5.29.024h5.29l.705,1.105a5.014,5.014,0,0,0,4.35,2.586,5.064,5.064,0,0,0,4.3-1.34,5.106,5.106,0,0,0,1.81-4.256,5.106,5.106,0,0,0-1.81-4.256,5.064,5.064,0,0,0-4.3-1.34,5.014,5.014,0,0,0-4.35,2.586l-.705,1.105H109.6l-4.232.023L99.725-425l-5.643-5.643H76.1V-434.4l18.88.024h18.856l.705,1.105a5.014,5.014,0,0,0,4.35,2.586,5.064,5.064,0,0,0,4.3-1.34,5.106,5.106,0,0,0,1.81-4.256,5.106,5.106,0,0,0-1.81-4.256,5.064,5.064,0,0,0-4.3-1.34,5.014,5.014,0,0,0-4.35,2.586l-.705,1.105H94.976l-18.88.023v-3.762H94.083l5.643-5.643,5.643-5.643,4.232.023h4.232l.705,1.105a5.014,5.014,0,0,0,4.35,2.586,5.064,5.064,0,0,0,4.3-1.34,5.106,5.106,0,0,0,1.81-4.256,5.451,5.451,0,0,0-3.339-5.267,7.375,7.375,0,0,0-4.773.071,6.74,6.74,0,0,0-2.751,2.751l-.259.564H103.252l-5.643,5.643-5.643,5.643H76.1v-6.489a50.039,50.039,0,0,1,.188-6.4c.094.047,1.058.517,2.163,1.035a22.231,22.231,0,0,0,12.062,2.375,18.471,18.471,0,0,0,5.408-.729,23.851,23.851,0,0,0,11.121-6.795,23.158,23.158,0,0,0,6.677-16.858,23.423,23.423,0,0,0-3.433-12.743,29.512,29.512,0,0,0-8.276-8.276,26.852,26.852,0,0,0-8.017-3.08,29.891,29.891,0,0,0-11.309.423,24.735,24.735,0,0,0-6.254,2.751l-1.575.94-.353-.517a11.469,11.469,0,0,0-3.785-3.174l-1.317-.658-26.8-.047C20.8-503.952,15.6-503.9,14.8-503.646Zm54.006,4.021c1.082.494,2.821,2.21,2.821,2.751a2.632,2.632,0,0,1-.729,1.011,29.362,29.362,0,0,0-3.9,5.878l-.423,1.035h-54.5l.118-3.362c.118-3.715.4-4.679,1.669-6a5.223,5.223,0,0,1,3.1-1.716c.517-.094,12.156-.141,25.863-.118C67.585-500.119,67.749-500.119,68.807-499.626Zm22.242.376a10.784,10.784,0,0,1,1.646,1.975A19.818,19.818,0,0,1,94.67-492.9a41.491,41.491,0,0,1-5.431.188H83.808l.165-.635a16.45,16.45,0,0,1,3.057-5.431c1.082-1.082,1.317-1.223,2.187-1.223A2.4,2.4,0,0,1,91.05-499.249Zm-9.311.752c0,.047-.306.752-.682,1.575s-.87,2.116-1.105,2.845l-.423,1.364H76.472l-3.08-.024L74.85-494.1a22.008,22.008,0,0,1,5.126-3.715C81.292-498.544,81.739-498.709,81.739-498.5Zm16.529.517a24.014,24.014,0,0,1,5.408,3.856l1.458,1.387-3.08.024H99l-.423-1.364c-.235-.729-.729-2.022-1.105-2.845s-.682-1.528-.682-1.575C96.786-498.685,97.069-498.568,98.268-497.98Zm-19.7,9.546a44.2,44.2,0,0,0-.588,5.76v1.246H73.392c-4,0-4.585-.047-4.585-.376a23.8,23.8,0,0,1,1.458-5.455l.705-1.693h7.712Zm17.493,1.293c.165,1.011.353,2.7.423,3.762l.141,1.951H81.9l.141-2.116c.094-1.152.282-2.845.423-3.762l.282-1.646H95.8Zm12.2-.118a23.8,23.8,0,0,1,1.458,5.455c0,.329-.588.376-4.585.376h-4.585v-1.246a44.2,44.2,0,0,0-.588-5.76l-.118-.517h7.712Zm-43.144,3.174a49.442,49.442,0,0,0-.165,5.126c.023,3.6.094,4.209.658,6.066a24.079,24.079,0,0,0,5.384,9.734l1.34,1.434-.047,29.249c-.071,29.084-.071,29.225-.564,30.283a6.542,6.542,0,0,1-3.292,3.08c-1.364.494-51.02.494-52.384,0a6.542,6.542,0,0,1-3.292-3.08l-.494-1.058-.071-40.981-.047-40.957H65.3Zm12.861,7.665a43.417,43.417,0,0,0,.588,5.737l.118.541H70.971l-.705-1.716a23.352,23.352,0,0,1-1.458-5.431c0-.329.588-.376,4.585-.376h4.585Zm18.5.682c-.071,1.082-.259,2.774-.423,3.762l-.259,1.834H82.75l-.282-1.646c-.141-.917-.329-2.61-.423-3.762l-.141-2.116H96.622Zm13.237-1.693a24.532,24.532,0,0,1-1.458,5.572l-.705,1.716H99.843l.118-.541a43.418,43.418,0,0,0,.588-5.737v-1.246h4.585C108.166-477.666,109.718-477.572,109.718-477.431ZM79.952-465.04a29.631,29.631,0,0,0,1.105,2.868,6.4,6.4,0,0,1,.588,1.6,15.323,15.323,0,0,1-3.926-2.069c-1.5-1.011-3.973-3.221-3.973-3.527a10.028,10.028,0,0,1,2.892-.212h2.892Zm14.718-1.152a19.818,19.818,0,0,1-1.975,4.373c-2.328,3.621-4.538,3.621-6.865,0a19.818,19.818,0,0,1-1.975-4.373,41.274,41.274,0,0,1,5.408-.188A40.972,40.972,0,0,1,94.67-466.192Zm10.11.023c0,.306-2.469,2.516-3.973,3.527a15.322,15.322,0,0,1-3.926,2.069,6.4,6.4,0,0,1,.588-1.6,29.629,29.629,0,0,0,1.105-2.868L99-466.38h2.892A10.028,10.028,0,0,1,104.78-466.168Zm15.753,9.9a1.881,1.881,0,0,1,.47,1.176,1.881,1.881,0,0,1-.47,1.176,1.881,1.881,0,0,1-1.176.47,1.881,1.881,0,0,1-1.176-.47,1.881,1.881,0,0,1-.47-1.176,1.881,1.881,0,0,1,.47-1.176,1.881,1.881,0,0,1,1.176-.47A1.881,1.881,0,0,1,120.533-456.27Zm0,18.809a1.881,1.881,0,0,1,.47,1.176,1.881,1.881,0,0,1-.47,1.176,1.881,1.881,0,0,1-1.176.47,1.881,1.881,0,0,1-1.176-.47,1.881,1.881,0,0,1-.47-1.176,1.881,1.881,0,0,1,.47-1.176,1.881,1.881,0,0,1,1.176-.47A1.881,1.881,0,0,1,120.533-437.461Zm0,18.809a1.881,1.881,0,0,1,.47,1.176,1.881,1.881,0,0,1-.47,1.176,1.881,1.881,0,0,1-1.176.47,1.881,1.881,0,0,1-1.176-.47,1.881,1.881,0,0,1-.47-1.176,1.881,1.881,0,0,1,.47-1.176,1.881,1.881,0,0,1,1.176-.47A1.881,1.881,0,0,1,120.533-418.651ZM13.837-395.68l1.246.658H69.4l1.246-.658a3.494,3.494,0,0,1,1.411-.541c.306.306-.517,2.14-1.387,3.08-1.857,2.022.141,1.881-28.426,1.881-20.808,0-25.44-.047-26.192-.329-1.693-.588-3.644-2.892-3.668-4.326C12.379-396.433,12.356-396.433,13.837-395.68Z" fill="#ff6f00"/>
    <path id="Path_289" data-name="Path 289" d="M40.47-471.53a1.924,1.924,0,0,0-.47,1.411,1.669,1.669,0,0,0,1.881,1.881,1.669,1.669,0,0,0,1.881-1.881A1.669,1.669,0,0,0,41.881-472,1.924,1.924,0,0,0,40.47-471.53Z" transform="translate(-24.094 -24.475)" fill="#ff6f00"/>
    <path id="Path_290" data-name="Path 290" d="M104-470.119v1.881h22.571V-472H104Z" transform="translate(-73.046 -24.475)" fill="#ff6f00"/>
    <path id="Path_291" data-name="Path 291" d="M60.032-391.52a17.094,17.094,0,0,0-10.745,8.746l-1.129,2.281-1.716.823A10.8,10.8,0,0,0,40-369.419a11.063,11.063,0,0,0,5.643,9.922c2.375,1.387,2.069,1.364,20.714,1.364,16.129,0,17.187-.023,18.527-.447A11.49,11.49,0,0,0,92.29-366.1a14.533,14.533,0,0,0-.071-6.818,11.187,11.187,0,0,0-10.228-7.806H80.558l-1.035-2.163a16.86,16.86,0,0,0-10.745-8.629A20.7,20.7,0,0,0,60.032-391.52Zm7.477,3.785a14.927,14.927,0,0,1,5.267,2.68c2.21,1.81,3.668,4.326,4.608,8.041l.235.964,1.364-.353a9.226,9.226,0,0,1,5.643.376,9.107,9.107,0,0,1,3.386,3.362c.447.846.541,1.364.541,3.245,0,2.563-.4,3.574-2,5.173a7.153,7.153,0,0,1-4.256,2.116c-2.022.306-29.907.306-31.929,0a7.153,7.153,0,0,1-4.256-2.116,6.411,6.411,0,0,1-2.069-4.89,4.914,4.914,0,0,1,.658-3.48c1.152-2.351,2.915-3.55,6.16-4.209.517-.094.682-.306.893-1.129a13.42,13.42,0,0,1,9.4-9.71A19.783,19.783,0,0,1,67.509-387.735Z" transform="translate(-24.094 -85.675)" fill="#ff6f00"/>
    <path id="Path_292" data-name="Path 292" d="M98.875-231.55a21.266,21.266,0,0,0-9.475,4.89l-.8.846,1.364,1.387,1.364,1.387,1.434-1.129a17.221,17.221,0,0,1,6.419-3.292,20.378,20.378,0,0,1,8.088-.094,18.85,18.85,0,0,1,6.724,3.362l1.434,1.176,1.387-1.411,1.364-1.387-.682-.729a25.332,25.332,0,0,0-6-3.879,19.9,19.9,0,0,0-8.229-1.481A27.727,27.727,0,0,0,98.875-231.55Z" transform="translate(-61.267 -208.12)" fill="#ff6f00"/>
    <path id="Path_293" data-name="Path 293" d="M116.825-199.642a13.947,13.947,0,0,0-4.984,2.657l-.94.846,1.387,1.364,1.387,1.387,1.387-.94a13.189,13.189,0,0,1,2.539-1.317,11.52,11.52,0,0,1,4.984-.235,11.1,11.1,0,0,1,3.715,1.951,1.467,1.467,0,0,0,.705.494,10.122,10.122,0,0,0,2.727-2.751c0-.353-2.116-1.951-3.433-2.61A15.623,15.623,0,0,0,116.825-199.642Z" transform="translate(-78.324 -232.505)" fill="#ff6f00"/>
    <path id="Path_294" data-name="Path 294" d="M130.228-167.506a5.836,5.836,0,0,0-.564,9.969,4.119,4.119,0,0,0,2.845.776,4.243,4.243,0,0,0,3.057-.564,5.624,5.624,0,0,0,2.7-6.889,5.1,5.1,0,0,0-2.539-3.08,4.552,4.552,0,0,0-2.868-.705A5.537,5.537,0,0,0,130.228-167.506Zm3.9,4.115a2.14,2.14,0,0,1,.494,1.035,1.924,1.924,0,0,1-1.716,1.646,1.854,1.854,0,0,1-1.81-1.622A1.733,1.733,0,0,1,134.131-163.392Z" transform="translate(-90.74 -256.999)" fill="#ff6f00"/>
    <path id="Path_295" data-name="Path 295" d="M120-86.119v1.881h18.809V-88H120Z" transform="translate(-85.284 -318.19)" fill="#ff6f00"/>
  </g>
</svg>
