<svg xmlns="http://www.w3.org/2000/svg" width="115.999" height="111.256" viewBox="0 0 115.999 111.256">
  <g id="branding" transform="translate(0 501.051)">
    <path id="Path_456" data-name="Path 456" d="M389.558-500.563c-.521.567-.725,3.377-.34,4.578a1.729,1.729,0,0,0,2.833.816c.567-.453.589-.544.589-2.72,0-1.949-.068-2.312-.453-2.7A2.053,2.053,0,0,0,389.558-500.563Z" transform="translate(-300.857)" fill="#ff6f00"/>
    <path id="Path_457" data-name="Path 457" d="M346.037-491.494c-.771.771-.771,1.382.023,3.2.861,1.972,1.337,2.47,2.38,2.47a1.582,1.582,0,0,0,1.677-1.677,8.252,8.252,0,0,0-1.836-4.079A1.8,1.8,0,0,0,346.037-491.494Z" transform="translate(-267.172 -7.052)" fill="#ff6f00"/>
    <path id="Path_458" data-name="Path 458" d="M430.283-491.535c-.7.657-1.926,3.739-1.745,4.442a1.964,1.964,0,0,0,2.878.952,9.364,9.364,0,0,0,1.745-4.1A1.758,1.758,0,0,0,430.283-491.535Z" transform="translate(-331.407 -7.034)" fill="#ff6f00"/>
    <path id="Path_459" data-name="Path 459" d="M309.479-464.411c-.839,1.065-.612,1.813,1.042,3.331,1.768,1.654,2.516,1.858,3.558,1.042a1.393,1.393,0,0,0,.589-1.314c0-.748-.181-1.02-1.45-2.244-1.292-1.246-1.564-1.405-2.357-1.405A1.444,1.444,0,0,0,309.479-464.411Z" transform="translate(-238.976 -27.881)" fill="#ff6f00"/>
    <path id="Path_460" data-name="Path 460" d="M334.258-464.337a17.471,17.471,0,0,0-12.419,9.5,20.844,20.844,0,0,0-1.45,3.921,19.335,19.335,0,0,0,1.02,10.833,18.872,18.872,0,0,0,5.96,7.343c.816.567,1.042.861,1.042,1.36a.939.939,0,0,1-.34.793,2.48,2.48,0,0,0-.793.861c-.408.68-.453,1.156-.453,5.235,0,6.164.295,6.731,3.626,6.731h1.586v1.36a4.2,4.2,0,0,0,1.224,3.4c.612.544.748.567,4.057.635,3.1.045,3.513.023,4.17-.385,1.11-.7,1.45-1.405,1.586-3.286l.136-1.722h1.632c1.337,0,1.745-.091,2.266-.5,1.11-.861,1.246-1.586,1.246-6.187,0-4.487-.181-5.462-1.11-6.051-.861-.521-.612-1.405.635-2.334a21.617,21.617,0,0,0,2.742-2.538,18.513,18.513,0,0,0,3.989-7.207c.906-3.513.521-9.133-.725-10.266a1.541,1.541,0,0,0-2.085-.136c-.907.635-1,1.088-.612,2.923a13.547,13.547,0,0,1-3.377,12.283,19.224,19.224,0,0,1-2.855,2.448,6.926,6.926,0,0,0-1.677,1.382,7.442,7.442,0,0,0-.136,1.586v1.224h-3.853v-6.549l.635-.34a5.761,5.761,0,0,0,1.224-.974c1.088-1.156,1.314-2.04,1.314-5.348,0-2.742-.045-3.127-.521-4.034a5.862,5.862,0,0,0-1.5-1.677c-.884-.635-1.133-.68-2.855-.68s-1.972.045-2.855.68a5.862,5.862,0,0,0-1.5,1.677c-.476.906-.521,1.292-.521,4.147,0,2.674.068,3.286.431,4.011.453.861,1.881,2.289,2.289,2.289a11.5,11.5,0,0,1,.227,3.4v3.4h-3.626v-1.133c0-1.541-.295-2.04-1.79-2.991a15.4,15.4,0,0,1-5.915-7.5,15.506,15.506,0,0,1-.363-7.411,15.038,15.038,0,0,1,5.96-8.521,14.37,14.37,0,0,1,10.266-2.04,16.513,16.513,0,0,1,6.459,3.127c.884.793,1.246.974,1.994.974,1.654,0,2.289-1.677,1.156-3.059-1.45-1.7-4.918-3.649-7.8-4.4A21.232,21.232,0,0,0,334.258-464.337Zm4.215,17.473c.544.521.521,4.759-.023,5.348a1.151,1.151,0,0,1-1.7.023c-.34-.317-.408-.725-.408-2.788a6.522,6.522,0,0,1,.272-2.674A1.57,1.57,0,0,1,338.473-446.864Zm6.255,22.413v3.059H330.45v-6.119h14.277Z" transform="translate(-247.506 -28.204)" fill="#ff6f00"/>
    <path id="Path_461" data-name="Path 461" d="M462.394-463.844c-1.428,1.224-1.858,1.972-1.7,2.833a2.105,2.105,0,0,0,1.745,1.45c1.065,0,3.966-2.72,3.966-3.717a2.186,2.186,0,0,0-.476-1.133,1.41,1.41,0,0,0-1.337-.589C463.867-465,463.481-464.8,462.394-463.844Z" transform="translate(-356.265 -27.881)" fill="#ff6f00"/>
    <path id="Path_462" data-name="Path 462" d="M287.5-425.47a2.006,2.006,0,0,0-.045,2.448,8.794,8.794,0,0,0,4.125,1.405,1.555,1.555,0,0,0,1.677-1.7c0-1.088-.567-1.586-2.357-2.13C288.951-426.037,288.089-426.059,287.5-425.47Z" transform="translate(-222.006 -58.119)" fill="#ff6f00"/>
    <path id="Path_463" data-name="Path 463" d="M482.469-425.4c-2.176.657-2.923,1.949-1.9,3.241a1.38,1.38,0,0,0,1.224.589A9.958,9.958,0,0,0,486-422.951a1.785,1.785,0,0,0-.091-2.425C485.279-425.988,484.35-425.988,482.469-425.4Z" transform="translate(-371.309 -58.168)" fill="#ff6f00"/>
    <path id="Path_464" data-name="Path 464" d="M2.04-394.7a3.347,3.347,0,0,0-1.405.884l-.635.7v83.625l.771.861.771.839,25.654.068c23.116.045,25.722.023,26.4-.317,1.45-.68,1.586-1.11,1.654-5.575l.091-4.011L71-317.689c14.164-.068,15.773-.113,16.7-.453.567-.227,3.173-1.564,5.779-2.991,5.054-2.742,5.779-3.331,5.779-4.759,0-1.5-.567-1.972-5.711-4.736-2.652-1.45-5.28-2.81-5.847-3.037-.929-.385-2.266-.408-16.7-.476L55.3-334.21v-5.19h1.881a28.367,28.367,0,0,0,21.575-10.719c1.972-2.448,2.946-4.4,2.742-5.484-.363-1.926-4.51-7-7.728-9.428a29.029,29.029,0,0,0-17.042-5.87H55.3V-381.62c0-11.784.023-11.648-1.428-12.714-.635-.476-.884-.476-16.43-.544-8.68-.045-16.136,0-16.544.068a1.758,1.758,0,0,0-1.156,2.923l.453.589H51.671v20.782l-1.178.249c-.657.136-1.428.317-1.677.408-.453.113-.5.023-.589-1.133a2.954,2.954,0,0,0-2.266-2.855c-.544-.159-7.252-.227-18.969-.181-17.926.068-18.13.068-18.765.544a4.364,4.364,0,0,0-1.042,1.246c-.363.7-.385,1.7-.34,13.348.068,11.694.091,12.623.476,13.19.929,1.36.476,1.314,17.427,1.314,15.229,0,15.478,0,16.158.476a31.465,31.465,0,0,0,8.612,3.717l2.04.521.068,2.742.068,2.742H41.132c-11.4,0-11.445,0-12.555,1.224l-.544.589H19.1c-8.612,0-8.929.023-9.36.453a1.944,1.944,0,0,0,.136,2.7c.589.453.839.476,9.178.476h8.589v4.306H19.059c-8.34,0-8.589.023-9.178.476a1.944,1.944,0,0,0-.136,2.7c.431.431.748.453,9.156.453h8.7l.136.544a4.2,4.2,0,0,0,2.108,2.312c.589.249,2.878.317,11.286.317H51.671v6.346H3.4v-80H13.8l.453-.589a1.707,1.707,0,0,0-.748-2.81A80.614,80.614,0,0,0,2.04-394.7Zm42.606,25.269c0,.974-.023,1.02-1.088,1.564a38.885,38.885,0,0,0-6.028,4.1,33.193,33.193,0,0,0-5.235,6.232c-1.473,2.448-1.2,3.49,1.949,7.524l1.564,1.994H10.425v-22.436h34.22Zm17.4,2.833a25.5,25.5,0,0,1,15.116,10.583l.612.952-1.042,1.5a25.476,25.476,0,0,1-14.912,10.017,22.02,22.02,0,0,1-5.507.408c-3.49,0-4.057-.068-6.1-.635a25.343,25.343,0,0,1-13.054-8.453c-2.221-2.765-2.2-2.72-1.042-4.4a30.12,30.12,0,0,1,5.575-5.711,27.643,27.643,0,0,1,11.241-4.714A32.57,32.57,0,0,1,62.05-366.595ZM38.3-325.915v4.646H31.274v-9.292H38.3Zm43.739-3.173v1.473H74.356l-.453.589a1.707,1.707,0,0,0,.748,2.81,24.962,24.962,0,0,0,4.011.227h3.377v2.72H41.926v-2.72H54.594c8.226,0,12.895-.091,13.3-.227a1.707,1.707,0,0,0,.748-2.81l-.453-.589H41.926v-2.946H82.038Zm5.62-.544,1.405.7v6.074l-1.36.68c-2.153,1.088-2.04,1.314-2.04-3.739,0-3.535.068-4.419.295-4.419A7.5,7.5,0,0,1,87.659-329.632Z" transform="translate(0 -82.094)" fill="#ff6f00"/>
    <path id="Path_465" data-name="Path 465" d="M211.5-263.607a10.338,10.338,0,0,0-7.207,8.294,10.166,10.166,0,0,0,11.649,11.535,10.169,10.169,0,0,0,8.249-12.555,9.882,9.882,0,0,0-9.9-7.569A11.988,11.988,0,0,0,211.5-263.607Zm5.462,3.853a6.736,6.736,0,0,1,3.83,4.872l.159.771-1.292-.159a6.84,6.84,0,0,1-5.666-4.51,12.23,12.23,0,0,1-.34-1.337C213.651-260.525,215.826-260.276,216.959-259.754Zm-5.394,4.487a12.2,12.2,0,0,0,4.011,3.581,16.788,16.788,0,0,0,2.788.906l1.654.363-.816.929a6.49,6.49,0,0,1-10.651-1.36,6.26,6.26,0,0,1,.748-6.98l.793-.929.5,1.337A15.237,15.237,0,0,0,211.566-255.267Z" transform="translate(-157.901 -183.405)" fill="#ff6f00"/>
    <path id="Path_466" data-name="Path 466" d="M284.519-382.638a2.23,2.23,0,0,0-1.768.816,1.65,1.65,0,0,0,.227,2.47c.431.363.748.408,2.493.272a8.963,8.963,0,0,0,2.448-.431,2.05,2.05,0,0,0,.748-2.062C288.371-382.774,287.51-383,284.519-382.638Z" transform="translate(-218.322 -91.456)" fill="#ff6f00"/>
    <path id="Path_467" data-name="Path 467" d="M484.466-382.384c-1.269,1.269-.521,2.833,1.473,3.127,3.377.476,4.374.091,4.238-1.654-.091-1.337-.725-1.7-3.173-1.881C485.1-382.951,485.032-382.928,484.466-382.384Z" transform="translate(-374.19 -91.392)" fill="#ff6f00"/>
    <path id="Path_468" data-name="Path 468" d="M298.813-344.019c-1.722,1.088-1.813,1.178-1.813,2.266a1.785,1.785,0,0,0,1.677,1.768,10.88,10.88,0,0,0,3.989-2.266,2.133,2.133,0,0,0-.227-2.266C301.714-345.243,300.513-345.084,298.813-344.019Z" transform="translate(-229.692 -120.715)" fill="#ff6f00"/>
    <path id="Path_469" data-name="Path 469" d="M472.444-344.552a2.082,2.082,0,0,0-.091,2.629A11.964,11.964,0,0,0,475.888-340a1.672,1.672,0,0,0,1.949-1.722c0-1-.408-1.45-2.289-2.493C474.143-344.983,473.214-345.1,472.444-344.552Z" transform="translate(-364.978 -120.771)" fill="#ff6f00"/>
    <path id="Path_470" data-name="Path 470" d="M77.113-343.609a1.847,1.847,0,0,0-.793,3.014c.431.431.748.453,9.926.453,9.292,0,9.5,0,9.9-.453a2.017,2.017,0,0,0-.068-2.561c-.5-.5-.521-.5-9.518-.544C81.622-343.7,77.362-343.677,77.113-343.609Z" transform="translate(-58.643 -121.691)" fill="#ff6f00"/>
    <path id="Path_471" data-name="Path 471" d="M41.5-154.524a1.944,1.944,0,0,0-.136,2.7c.453.453.748.453,17.745.453,18.833,0,18.062.045,18.379-1.269a1.9,1.9,0,0,0-.907-2.108c-.408-.181-5.394-.249-17.518-.249C42.248-155,42.09-155,41.5-154.524Z" transform="translate(-31.62 -267.627)" fill="#ff6f00"/>
  </g>
</svg>
