<svg xmlns="http://www.w3.org/2000/svg" width="161" height="80" viewBox="0 0 161 80">
  <g id="Group_73" data-name="Group 73" transform="translate(-1631 -1896)">
    <circle id="Ellipse_40" data-name="Ellipse 40" cx="8" cy="8" r="8" transform="translate(1631 1896)" fill="#ff6f00"/>
    <circle id="Ellipse_41" data-name="Ellipse 41" cx="8" cy="8" r="8" transform="translate(1660 1896)" fill="#ff6f00"/>
    <circle id="Ellipse_42" data-name="Ellipse 42" cx="8" cy="8" r="8" transform="translate(1689 1896)" fill="#ff6f00"/>
    <circle id="Ellipse_43" data-name="Ellipse 43" cx="8" cy="8" r="8" transform="translate(1718 1896)" fill="#ff6f00"/>
    <circle id="Ellipse_44" data-name="Ellipse 44" cx="8" cy="8" r="8" transform="translate(1747 1896)" fill="#ff6f00"/>
    <circle id="Ellipse_45" data-name="Ellipse 45" cx="8" cy="8" r="8" transform="translate(1776 1896)" fill="#ff6f00"/>
    <circle id="Ellipse_46" data-name="Ellipse 46" cx="8" cy="8" r="8" transform="translate(1631 1928)" fill="#ff6f00"/>
    <circle id="Ellipse_47" data-name="Ellipse 47" cx="8" cy="8" r="8" transform="translate(1660 1928)" fill="#ff6f00"/>
    <circle id="Ellipse_48" data-name="Ellipse 48" cx="8" cy="8" r="8" transform="translate(1689 1928)" fill="#ff6f00"/>
    <circle id="Ellipse_49" data-name="Ellipse 49" cx="8" cy="8" r="8" transform="translate(1718 1928)" fill="#ff6f00"/>
    <circle id="Ellipse_50" data-name="Ellipse 50" cx="8" cy="8" r="8" transform="translate(1747 1928)" fill="#ff6f00"/>
    <circle id="Ellipse_51" data-name="Ellipse 51" cx="8" cy="8" r="8" transform="translate(1776 1928)" fill="#ff6f00"/>
    <circle id="Ellipse_52" data-name="Ellipse 52" cx="8" cy="8" r="8" transform="translate(1631 1960)" fill="#ff6f00"/>
    <circle id="Ellipse_53" data-name="Ellipse 53" cx="8" cy="8" r="8" transform="translate(1660 1960)" fill="#ff6f00"/>
    <circle id="Ellipse_54" data-name="Ellipse 54" cx="8" cy="8" r="8" transform="translate(1689 1960)" fill="#ff6f00"/>
    <circle id="Ellipse_55" data-name="Ellipse 55" cx="8" cy="8" r="8" transform="translate(1718 1960)" fill="#ff6f00"/>
    <circle id="Ellipse_56" data-name="Ellipse 56" cx="8" cy="8" r="8" transform="translate(1747 1960)" fill="#ff6f00"/>
    <circle id="Ellipse_57" data-name="Ellipse 57" cx="8" cy="8" r="8" transform="translate(1776 1960)" fill="#ff6f00"/>
  </g>
</svg>
