<svg xmlns="http://www.w3.org/2000/svg" width="159" height="164" viewBox="0 0 159 164">
  <g id="Group_71" data-name="Group 71" transform="translate(-478 -2842)">
    <ellipse id="Ellipse_78" data-name="Ellipse 78" cx="79.5" cy="82" rx="79.5" ry="82" transform="translate(478 2842)" fill="#7b1fa2"/>
    <g id="diversity" transform="translate(514.283 3392.644)">
      <path id="Path_372" data-name="Path 372" d="M220.855-511.553a6.792,6.792,0,0,0-3.9,3.562c-.422.844-.456,1.1-.456,2.87,0,1.806.034,2.009.49,2.954a7.619,7.619,0,0,0,3.224,3.224c.945.456,1.148.49,2.954.49s2.009-.034,2.954-.49a7.619,7.619,0,0,0,3.224-3.224c.456-.945.49-1.148.49-2.954s-.034-2.009-.49-2.954a7.488,7.488,0,0,0-3.224-3.208,5.078,5.078,0,0,0-2.7-.557A6.112,6.112,0,0,0,220.855-511.553Zm4.052,2.735a3.922,3.922,0,0,1,2.313,3.748,4,4,0,0,1-4,4,3.923,3.923,0,0,1-4.1-4.052,3.922,3.922,0,0,1,4.018-4.052A3.687,3.687,0,0,1,224.907-508.818Z" transform="translate(-179.951)" fill="#fff"/>
      <path id="Path_373" data-name="Path 373" d="M53.883-476.644a4.358,4.358,0,0,0-2.009,2.076,5.531,5.531,0,0,0,0,3.309c.169.405,2.093,2.482,5.706,6.111,4.642,4.676,6.516,6.736,6.516,7.158a6.742,6.742,0,0,1-1.165.76,20.762,20.762,0,0,0-7.276,7.293l-.692,1.165-.793-.54c-.439-.287-3.258-2.988-6.28-5.976-3.63-3.613-5.706-5.537-6.111-5.706a5.294,5.294,0,0,0-3.427.051,4.358,4.358,0,0,0-2.009,2.076,5.667,5.667,0,0,0-.017,3.309,49.516,49.516,0,0,0,4.879,5.267c4.22,4.254,4.626,4.71,4.811,5.436a71.271,71.271,0,0,1,0,10.4c-.186.726-.591,1.182-4.811,5.436a49.516,49.516,0,0,0-4.879,5.267,5.667,5.667,0,0,0,.017,3.309,4.358,4.358,0,0,0,2.009,2.076,5.294,5.294,0,0,0,3.427.051c.405-.169,2.482-2.093,6.111-5.706,3.022-2.988,5.841-5.689,6.28-5.976l.793-.54.675,1.165a20.854,20.854,0,0,0,7.276,7.276,7.137,7.137,0,0,1,1.182.777,15.562,15.562,0,0,1-2.549,3.191c-1.418,1.5-1.536,1.671-1.435,2.161a1.356,1.356,0,0,0,1.435,1.131c.557,0,.76-.152,2.3-1.739a19.546,19.546,0,0,0,2.262-2.752l.591-1,1.519.405c1.4.388,1.84.422,5,.422s3.6-.034,5-.422l1.519-.405.591,1.013c.422.743,2.093,2.549,6.179,6.685,5.233,5.267,5.622,5.706,5.622,6.246a1.3,1.3,0,0,1-1.351,1.334c-.523,0-.979-.405-5.216-4.626-4.22-4.17-4.761-4.659-5.672-5.014-1-.405-1.1-.405-6.668-.405s-5.672,0-6.668.405c-.912.371-1.469.861-5.672,5.031-4.3,4.254-4.693,4.609-5.25,4.609a1.3,1.3,0,0,1-1.317-1.367c0-.506.236-.81,2.11-2.684,1.739-1.739,2.144-2.228,2.211-2.735a.947.947,0,0,0-.321-1.047,1.349,1.349,0,0,0-1-.439c-.49,0-.827.27-2.87,2.313a18.7,18.7,0,0,0-2.583,2.954,5.667,5.667,0,0,0,.017,3.309,4.358,4.358,0,0,0,2.009,2.076,5.408,5.408,0,0,0,3.427.068,49.515,49.515,0,0,0,5.267-4.879c4.254-4.22,4.71-4.626,5.436-4.811a68.976,68.976,0,0,1,10.4.017c.726.169,1.2.574,5.436,4.794a49.241,49.241,0,0,0,5.284,4.879,5.358,5.358,0,0,0,3.41-.068,4.358,4.358,0,0,0,2.009-2.076,5.531,5.531,0,0,0,0-3.309c-.169-.405-2.093-2.482-5.706-6.111-4.626-4.659-6.516-6.736-6.516-7.158a9.692,9.692,0,0,1,1.317-.861,20.508,20.508,0,0,0,7.141-7.192,6.741,6.741,0,0,1,.76-1.165c.422,0,2.482,1.874,7.158,6.516,3.63,3.613,5.706,5.537,6.111,5.706a5.294,5.294,0,0,0,3.427-.051,4.358,4.358,0,0,0,2.009-2.076,5.667,5.667,0,0,0,.017-3.309,49.514,49.514,0,0,0-4.879-5.267c-4.22-4.254-4.626-4.71-4.811-5.436a71.27,71.27,0,0,1,0-10.4c.186-.726.591-1.182,4.811-5.436a49.514,49.514,0,0,0,4.879-5.267,5.408,5.408,0,0,0-.068-3.427,3.909,3.909,0,0,0-3.765-2.279c-1.553.017-2.161.371-4.3,2.566-1.621,1.654-1.908,2.026-1.908,2.482a1.378,1.378,0,0,0,.439.979.948.948,0,0,0,1.047.321c.49-.068.962-.439,2.4-1.874,1.587-1.587,1.84-1.773,2.38-1.773a1.29,1.29,0,0,1,1.334,1.351c0,.523-.405.979-4.626,5.216-4.17,4.22-4.659,4.761-5.014,5.672-.405,1-.405,1.1-.405,6.668s0,5.672.405,6.668c.371.912.861,1.469,5.031,5.672,4.254,4.3,4.609,4.693,4.609,5.25a1.3,1.3,0,0,1-1.351,1.317c-.523,0-1.047-.473-6.229-5.622-4.136-4.085-5.942-5.757-6.685-6.179l-1.013-.591.405-1.519c.388-1.4.422-1.84.422-5s-.034-3.6-.422-5l-.405-1.519,1-.591a21.989,21.989,0,0,0,3.089-2.6c1.941-1.891,2.076-2.076,2.076-2.667a1.265,1.265,0,0,0-.962-1.317c-.76-.051-1.1.169-2.769,1.773a15.78,15.78,0,0,1-3.427,2.8,11.9,11.9,0,0,1-.878-1.334,21.478,21.478,0,0,0-7.023-7.023,9.692,9.692,0,0,1-1.317-.861c0-.422,1.891-2.5,6.516-7.158,3.613-3.63,5.537-5.706,5.706-6.111a5.531,5.531,0,0,0,0-3.309,4.358,4.358,0,0,0-2.009-2.076,5.408,5.408,0,0,0-3.427-.068,49.515,49.515,0,0,0-5.267,4.879c-4.254,4.22-4.71,4.626-5.436,4.811a71.036,71.036,0,0,1-10.382,0,4.958,4.958,0,0,1-2.009-1.351c-1.03-.962-1.351-1.165-1.806-1.165a1.3,1.3,0,0,0-1.3,1.367c0,.49.186.743,1.334,1.857,2.161,2.11,2.127,2.093,8.964,2.093,5.571,0,5.672,0,6.668-.405.912-.371,1.469-.861,5.672-5.031,4.3-4.254,4.693-4.609,5.25-4.609a1.3,1.3,0,0,1,1.317,1.351c0,.523-.473,1.047-5.622,6.229-4.085,4.136-5.757,5.942-6.179,6.685l-.591,1.013-1.519-.405c-1.4-.388-1.857-.422-5-.422s-3.6.034-5,.422l-1.519.405L66.1-460c-.422-.743-2.093-2.549-6.179-6.685-5.233-5.267-5.622-5.706-5.622-6.246a1.3,1.3,0,0,1,1.334-1.334c.473,0,.81.236,2.211,1.6,1.435,1.384,1.739,1.6,2.228,1.6a1.3,1.3,0,0,0,1.317-1.367c0-.506-.2-.777-1.722-2.3a13.855,13.855,0,0,0-2.363-1.992A5.408,5.408,0,0,0,53.883-476.644Zm-7.614,23.617a66.492,66.492,0,0,0,6.618,6.162l1.013.625-.422,1.57c-.388,1.418-.422,1.857-.422,5.014s.034,3.6.422,5.014l.422,1.57-1.013.625a66.492,66.492,0,0,0-6.618,6.162c-5.115,5.081-5.622,5.537-6.145,5.537a1.3,1.3,0,0,1-1.351-1.317c0-.557.355-.945,4.609-5.25,4.17-4.2,4.659-4.761,5.031-5.672.405-1,.405-1.1.405-6.668s0-5.672-.405-6.668c-.371-.912-.861-1.469-5.031-5.672-4.187-4.237-4.609-4.71-4.609-5.216a1.3,1.3,0,0,1,1.334-1.351C40.647-458.564,41.069-458.193,46.269-453.027Zm26.875-3.714c1.654,1.2,2.3,2.5,1.908,3.9-.169.625-.473,1.047-1.621,2.144-1.08,1.047-1.4,1.469-1.4,1.823a1.238,1.238,0,0,0,.827,1.283c.439.186.608.152,1.266-.152a9.122,9.122,0,0,0,3.326-3.68,6.063,6.063,0,0,0-.051-4.491c-.253-.523-.388-.962-.321-.962a13.129,13.129,0,0,1,1.435.422,18.6,18.6,0,0,1,7.6,4.845l.945,1.03-.608.675c-2.127,2.347-2.195,6.736-.152,9.808a9.585,9.585,0,0,0,3.326,2.971c.726.388.979.608.912.81-.051.152-.2.777-.371,1.384a19.823,19.823,0,0,1-2.921,5.858,17.333,17.333,0,0,1-4.389,4.119l-1.249.844-.54-1.148c-1.064-2.313-2.583-2.971-5.318-2.313-1.806.422-2.448.084-3.9-2.076a6.088,6.088,0,0,0-5.638-2.988,5.518,5.518,0,0,0-4.3,1.739,6.634,6.634,0,0,0-1.351,1.908,4.168,4.168,0,0,1-.506.979,10.214,10.214,0,0,1-1-1.232,19.24,19.24,0,0,1-3.292-7.85l-.1-.574.726.135a8.218,8.218,0,0,0,3.6-.186,4.579,4.579,0,0,0,2.262-2.313,11.381,11.381,0,0,0,.523-2.3c.321-2.819.473-3.646.793-4.085.49-.642,1.064-.777,2.195-.523,1.958.439,2.38.439,2.819.017a1.234,1.234,0,0,0,.422-.945c0-.878-.439-1.232-1.941-1.587-2.448-.591-3.815-.388-5.048.692-1.182,1.047-1.418,1.806-1.941,6.111-.186,1.519-.49,2.076-1.317,2.414-.591.253-.945.236-2.4-.135l-.743-.186.118-1.114a18.3,18.3,0,0,1,2.937-7.884,18.154,18.154,0,0,1,11.176-7.411C71.676-457.332,72.4-457.281,73.144-456.741Zm16.071,9.774a17.515,17.515,0,0,1,1.5,5.773c.1,1.519.084,1.57-.219,1.4-2.684-1.452-3.917-5.959-2.211-8.1C88.557-448.249,88.675-448.131,89.216-446.966ZM68.249-429.443a6.2,6.2,0,0,1,1.6,1.722,6.231,6.231,0,0,0,2.6,2.566,5.29,5.29,0,0,0,3.68.27c1.1-.219,1.519-.236,1.789-.1a2.576,2.576,0,0,1,.928,1.57c.1.422.051.456-.777.709a18.372,18.372,0,0,1-10.416-.236c-1.958-.658-5.25-2.515-5.25-2.971a8.157,8.157,0,0,1,.253-1.03,4.116,4.116,0,0,1,2.785-2.937A4.333,4.333,0,0,1,68.249-429.443Z" transform="translate(-29.995 -29)" fill="#fff"/>
      <path id="Path_374" data-name="Path 374" d="M247.668-280.568a4.564,4.564,0,0,0-1.334,1.2,5,5,0,0,1-2.8,1.773,3.013,3.013,0,0,0-2.127,1.823,3.961,3.961,0,0,0,.591,4.406c.743.76,1.519,1.013,3.14,1,3.275-.017,7.141-1.908,8.221-4.018a4.225,4.225,0,0,0-.034-3.528,6.262,6.262,0,0,0-1.283-1.621C250.6-280.855,249-281.227,247.668-280.568Zm2.127,2.752a3.6,3.6,0,0,1,1.334,1.739c0,.473-1.1,1.435-2.245,2.009a12.43,12.43,0,0,1-4,1.1,1.115,1.115,0,0,1-1.182-1c0-.675.3-.962,1.351-1.266a6.648,6.648,0,0,0,3.224-2.144,3.878,3.878,0,0,1,.81-.827A2.543,2.543,0,0,1,249.795-277.817Z" transform="translate(-200.315 -191.971)" fill="#fff"/>
      <path id="Path_375" data-name="Path 375" d="M432.574-295.426l-.574.574v11.209l.574.574.574.574h11.209l.574-.574.574-.574v-11.209l-.574-.574-.574-.574H433.148Zm10.4,6.179v4.22h-8.441v-8.441h8.441Z" transform="translate(-359.072 -179.409)" fill="#fff"/>
      <path id="Path_376" data-name="Path 376" d="M10.8-293.7c-.135.051-2.431,1.08-5.115,2.279C.236-288.941,0-288.772,0-287.4s.236,1.536,5.689,4.018c2.684,1.215,5.064,2.262,5.318,2.313a2.3,2.3,0,0,0,2.076-.777l.422-.523v-5.014c0-4.913-.017-5.048-.371-5.5A2.27,2.27,0,0,0,10.8-293.7Zm.135,7.985-.051,1.671L7.31-285.666a38.761,38.761,0,0,1-3.6-1.739,38.775,38.775,0,0,1,3.6-1.739l3.579-1.621.051,1.671C10.956-288.165,10.956-286.645,10.939-285.717Z" transform="translate(0 -181.252)" fill="#fff"/>
      <path id="Path_377" data-name="Path 377" d="M214.076-79.46a39.733,39.733,0,0,0-3.376,6.212,39.733,39.733,0,0,0,3.376,6.212l.405.54h7.732l.405-.557a38.946,38.946,0,0,0,3.376-6.2,39.734,39.734,0,0,0-3.376-6.212l-.405-.54h-7.732Zm7.8,4.1,1.215,2.11-1.215,2.11-1.215,2.11h-4.626l-1.215-2.11-1.215-2.11,1.215-2.11,1.215-2.11h4.626Z" transform="translate(-175.131 -358.945)" fill="#fff"/>
    </g>
  </g>
</svg>
