<svg xmlns="http://www.w3.org/2000/svg" width="159" height="164" viewBox="0 0 159 164">
  <g id="Group_68" data-name="Group 68" transform="translate(-1255 -2842)">
    <ellipse id="Ellipse_80" data-name="Ellipse 80" cx="79.5" cy="82" rx="79.5" ry="82" transform="translate(1255 2842)" fill="#7b1fa2"/>
    <g id="deadline" transform="translate(1256.365 3392.625)">
      <path id="Path_378" data-name="Path 378" d="M48.79-511.672a4.7,4.7,0,0,0-1.123.95l-.518.657-.052,2.921c-.052,2.765-.035,2.955.328,3.612a3.309,3.309,0,0,0,2.627,1.676l.95.1.086,6.844c.069,6.135.1,7,.432,8.313a21.159,21.159,0,0,0,6.653,11.389c1.486,1.331,2.679,2.16,7.846,5.392,1.728,1.089,3.145,2,3.145,2.057s-1.8,1.21-3.992,2.592-4.476,2.851-5.046,3.266a21.5,21.5,0,0,0-8.606,12.979c-.328,1.313-.363,2.178-.432,8.313L51-433.766l-.95.1a3.309,3.309,0,0,0-2.627,1.676c-.363.657-.38.847-.328,3.612l.052,2.921.518.657a4.7,4.7,0,0,0,1.123.951c.57.311,1.624.328,27.582.328,18.111,0,27.305-.052,28-.19a18.263,18.263,0,0,0,13.583-10.9,15.4,15.4,0,0,0,1.244-6.965,14.06,14.06,0,0,0-.467-4.476,17.988,17.988,0,0,0-15.675-13.393,18.67,18.67,0,0,0-6.308.467l-1.21.311L94.1-460.034c-1.383-1.313-3.3-2.627-8.8-6.083-1.365-.864-2.471-1.59-2.471-1.642s1.849-1.244,4.1-2.679c5.064-3.2,6.325-4.13,8.14-6.014a21.32,21.32,0,0,0,5.738-12.477c.086-.847.173-4.1.173-7.189v-5.634l.968-.1a2.542,2.542,0,0,0,1.59-.6c1.279-1.02,1.331-1.158,1.383-4.061.086-3.508-.207-4.372-1.711-5.133-.657-.346-1.123-.346-27.236-.346C50.415-512,49.361-511.983,48.79-511.672Zm45.278,4.683v2.419h-21.9c-13.48,0-22.017-.069-22.172-.173-.19-.121-.277-.6-.311-2.057-.052-1.728-.035-1.918.294-2.247l.363-.363H94.068Zm4.148,11.233v6.049l-16.832.035c-16.279.052-16.85.069-17.2.38a1.368,1.368,0,0,0-.052,1.8c.311.311,1.089.328,16.867.415,9.107.052,16.59.138,16.642.19.156.173-.588,2.385-1.313,3.888a18.645,18.645,0,0,1-3.249,4.718c-1.521,1.59-2.316,2.177-7.829,5.686-2.575,1.642-4.735,3.093-4.787,3.214-.069.19-.9.242-4.459.242-4.182,0-4.372-.017-4.683-.363-.173-.19-2.4-1.676-4.943-3.284-2.54-1.624-5.046-3.266-5.53-3.664a19.54,19.54,0,0,1-5.081-6.221,17.461,17.461,0,0,1-1.521-4.3,19.753,19.753,0,0,1,3.128-.138c2.592,0,3.093-.035,3.37-.294a1.465,1.465,0,0,0-.052-1.884c-.328-.294-.709-.328-3.612-.38l-3.249-.052-.1-.639c-.052-.346-.1-3.076-.1-6.049V-501.8H98.216ZM80.675-465.961c.207.207,2.558,1.745,5.219,3.422a65.484,65.484,0,0,1,5.91,4.061l1.089,1-1.348.881a18.465,18.465,0,0,0-7.224,9.073,18.464,18.464,0,0,0-.017,11.976,27.731,27.731,0,0,0,2.3,4.649,22.964,22.964,0,0,0,4.13,4.061,6.781,6.781,0,0,1,.916.657c0,.035-9.3.069-20.652.069-24.108,0-21.343.294-21.343-2.316a8.681,8.681,0,0,1,.173-2.074l.173-.449H66.141c11.475,0,16.279-.052,16.573-.19a1.268,1.268,0,0,0-.156-2.333c-.484-.207-3.024-.242-14.759-.242H53.629v-5.53H66.59c9.3,0,13.065-.052,13.376-.19a1.248,1.248,0,0,0,.536-1.659,1.337,1.337,0,0,0-.518-.639c-.156-.052-6.17-.1-13.341-.1H53.577l.121-2.454a19.344,19.344,0,0,1,1.953-8.33c2-3.992,3.837-5.72,10.559-10.006,2.644-1.676,4.994-3.266,5.219-3.491l.415-.432,4.217.1C80.018-466.324,80.312-466.29,80.675-465.961Zm18.975,9.73a14.1,14.1,0,0,1,1.227.726c.657.432.657.449.259.553a5.827,5.827,0,0,1-1.123.138,14.079,14.079,0,0,0-4.822,1.4,13.711,13.711,0,0,0-6.861,8.382,16.248,16.248,0,0,0-.086,6.826,14.03,14.03,0,0,0,6.965,8.624,12.227,12.227,0,0,0,4.856,1.348,4.246,4.246,0,0,1,1.521.225,10.84,10.84,0,0,1-1.313.864c-1.106.657-1.313.726-2.039.639a15.474,15.474,0,0,1-7.587-3.992,15.231,15.231,0,0,1-3.007-17.99,15.5,15.5,0,0,1,9.28-7.708A3.421,3.421,0,0,1,99.65-456.232Zm4.044,4.286a10.65,10.65,0,0,1,7.206,5.858,9.5,9.5,0,0,1,1.02,4.77,10.634,10.634,0,0,1-5.789,9.349,10.7,10.7,0,0,1-15.571-9.349,9.383,9.383,0,0,1,1.106-4.925,10.635,10.635,0,0,1,7.068-5.7A13.3,13.3,0,0,1,103.694-451.946Z" fill="#fff"/>
      <path id="Path_379" data-name="Path 379" d="M353.338-152.645c-.38.38-.38.415-.242,5.738.069,2.955.19,5.547.277,5.772a1.135,1.135,0,0,0,1.538.4,3.683,3.683,0,0,0,.536-.242c.017,0,.121-2.419.225-5.375.207-5.478.156-6.17-.415-6.481A1.887,1.887,0,0,0,353.338-152.645Z" transform="translate(-253.065 -296.951)" fill="#fff"/>
      <path id="Path_380" data-name="Path 380" d="M352.739-70.8a1.537,1.537,0,0,0-.173,2.385,1.352,1.352,0,0,0,2.108,0,1.444,1.444,0,0,0,.052-2.16A1.685,1.685,0,0,0,352.739-70.8Z" transform="translate(-252.294 -364.764)" fill="#fff"/>
    </g>
  </g>
</svg>
