<svg xmlns="http://www.w3.org/2000/svg" width="159" height="164" viewBox="0 0 159 164">
  <g id="Group_72" data-name="Group 72" transform="translate(-219 -2842)">
    <ellipse id="Ellipse_77" data-name="Ellipse 77" cx="79.5" cy="82" rx="79.5" ry="82" transform="translate(219 2842)" fill="#7b1fa2"/>
    <g id="meeting" transform="translate(257.852 2883.328)">
      <path id="Path_350" data-name="Path 350" d="M5.706-511.587A8.411,8.411,0,0,0,.212-501.553a8.489,8.489,0,0,0,1.318,2.922c.206.254.191.4-.254,1.445a15.825,15.825,0,0,0-.333,11.654c1.3,4.112,4.112,8.59,5.922,9.495a4.468,4.468,0,0,0,2.525.4H11.12l-.1.905c-.365,3.652-.286,5.573.238,6.1a1.455,1.455,0,0,0,1.81-.016c.238-.27.286-.651.318-2.652.016-1.3.1-2.794.159-3.35l.127-.984H18.36l.683.556c3.779,3.16,8.463,2.032,9.606-2.3.27-1,.333-1.1,2.652-3.43,2.191-2.223,2.429-2.413,3.064-2.509a5.443,5.443,0,0,0,4.033-3.239,6.315,6.315,0,0,0-.27-4.652,11.455,11.455,0,0,0-1.064-1.683l-.572-.651v-4.763l.524-.1a21.184,21.184,0,0,1,2.3-.206c2.159-.111,2.572-.333,2.572-1.318a1.008,1.008,0,0,0-.429-.953c-.429-.333-.54-.349-2.35-.254a20.8,20.8,0,0,0-2.239.191c-.333.079-.349.032-.413-1.715a5.473,5.473,0,0,0-.413-2.445c-.937-1.81-5.383-4.636-9.352-5.922A17.723,17.723,0,0,0,20.869-512c-2.667,0-3.271.27-3.271,1.4a1.119,1.119,0,0,0,1.127,1.191c.3,0,1.191-.016,2-.032a13.5,13.5,0,0,1,4.732.73c2.239.7,2.779,1.238,2.779,2.779a3.561,3.561,0,0,1-1.08,2.572c-.508.46-.667.492-2.112.318-.842-.1-.905-.079-1.223.333-.842,1.08-.27,1.747,2.159,2.54,1.588.524,1.778.619,1.778.953a2.088,2.088,0,0,0,.1.6c.064.175-.333.46-1.477,1.048a30.3,30.3,0,0,0-12.067,12.178c-.524,1.016-.667,1.175-1.032,1.175-.794,0-.905-.143-1.477-2-.6-1.905-.889-2.286-1.683-2.286a1.7,1.7,0,0,0-.857.349c-.4.3-.429.413-.349,1.064.064.4.143.921.191,1.143.238.984-1.794,2.318-3.3,2.159-1.413-.127-2-.889-2.731-3.6a12.638,12.638,0,0,1,.27-8.018l.333-.873,1.365,1.3a8.134,8.134,0,0,0,4,2.445,6.918,6.918,0,0,0,4.176-.333,3.36,3.36,0,0,1,1.953-.286,3.113,3.113,0,0,0,2.683-.619,3.172,3.172,0,0,0,1.032-3.255,1.79,1.79,0,0,1,.143-1.445,7.156,7.156,0,0,0-.635-6.97,27.358,27.358,0,0,0-2.731-3C12.692-511.317,11.311-512,8.405-512A7,7,0,0,0,5.706-511.587Zm5.287,2.667a10.49,10.49,0,0,1,2.271,1.747c1.191,1.159,1.318,1.35,1.318,1.889a1.314,1.314,0,0,1-1.334,1.381,1.512,1.512,0,0,0-1.4,1.032,4.134,4.134,0,0,0,.175,1.048c.175.635.175.81-.048,1.223-.349.667-.953.842-1.905.54-.667-.222-.826-.222-1.175-.016-.476.27-.619.508-.746,1.318a1.492,1.492,0,0,1-1.381,1.365c-.445,0-.714-.206-1.905-1.413-1.651-1.683-2.191-2.683-2.318-4.3a5.542,5.542,0,0,1,.905-3.62,6.107,6.107,0,0,1,2.842-2.366,4.544,4.544,0,0,1,2.334-.333A4.757,4.757,0,0,1,10.993-508.92Zm21.117,3.493a12.548,12.548,0,0,1,1.365,1.127l.4.429.079,5.748.079,5.764.73.81a4.136,4.136,0,0,1,1.381,3.207,2.819,2.819,0,0,1-.445,1.429l-.381.524-.191-.969c-.4-1.937-1.54-3.207-2.89-3.207h-.46l-.826-5.049c-.857-5.16-1-5.827-1.4-6.049-.191-.1-.143-.254.254-.889a7.476,7.476,0,0,0,1.048-2.906,1.628,1.628,0,0,1,.191-.667A9.7,9.7,0,0,1,32.11-505.427Zm-15.036,4.3a4.951,4.951,0,0,1-.587,1.985l-.524,1.032.254.937c.175.683.206,1.032.1,1.254-.175.318-.222.318-1.937.016-.492-.079-.794,0-1.651.429a3.731,3.731,0,0,1-2.08.524,3.8,3.8,0,0,1-1.445-.206l-.4-.222.46-.318a4.373,4.373,0,0,0,.857-.969c.365-.587.492-.651,1.127-.7a4.229,4.229,0,0,0,2.636-1.429,4.878,4.878,0,0,0,.857-2.4c0-.318.159-.492.635-.778a3.443,3.443,0,0,0,.984-.842l.349-.476.222.6A4.223,4.223,0,0,1,17.074-501.124Zm11.781,8.59.524,3.128L26-486.024l-3.4,3.382-3.017-.492c-1.651-.27-3.064-.54-3.128-.587-.159-.143,1.588-2.969,2.763-4.493a31.683,31.683,0,0,1,5.065-4.938,29.467,29.467,0,0,1,3.969-2.493A25.838,25.838,0,0,1,28.855-492.534Zm3.588,5.081c.54,1.159.381,1.413-3.064,4.843-3.334,3.318-3.541,3.461-4.62,3.112-1.223-.413-1.223-.413,3-4.636a47.388,47.388,0,0,1,4.144-3.89C32.047-488.025,32.285-487.771,32.444-487.453ZM15.772-481.2c6.049,1,5.637.905,5.637,1.365,0,1.381,1.762,2.858,3.541,2.953.842.048.762.27-.27.794-1.207.619-2.413.27-4.287-1.223l-1.1-.873H8.135l-.556-.6a11.346,11.346,0,0,1-1.731-2.271c0-.079.238-.143.54-.143a7.479,7.479,0,0,0,3.207-1.08l.6-.445.333.365C10.818-482.039,11.39-481.912,15.772-481.2Z" transform="translate(0.031 512.027)" fill="#fff"/>
      <path id="Path_351" data-name="Path 351" d="M270.545-511.888a17.587,17.587,0,0,0-5.446,2.826c-2.747,2.08-7.034,6.573-7.748,8.113-.572,1.238-4.35,15.767-4.35,16.687a4.2,4.2,0,0,0,2.461,3.557,4.131,4.131,0,0,0,3.017.063,17.377,17.377,0,0,0,4.049-4.255,4.138,4.138,0,0,0-.413-2.985l-.413-.857,1.62-3.572c.905-1.953,1.7-3.62,1.762-3.7.191-.206,2.922,1.365,4.779,2.763a30.5,30.5,0,0,1,5.478,5.51c1.207,1.62,2.493,3.858,2.318,4.017a4.849,4.849,0,0,1-1.223.3l-1.08.191-.826-.778a4.162,4.162,0,0,0-2.54-1.4c-1.207-.175-1.762.143-3.715,2.064-2.223,2.159-2.461,2.6-2.382,4.144a3.267,3.267,0,0,0,1.588,2.89l.667.445,6.145.048,6.145.048.127,1.223a39.086,39.086,0,0,1,0,6.1l-.127,1.238H274.53a54.033,54.033,0,0,0-6.43.175l-.508.175-2.429-2.382c-2.588-2.572-2.89-2.731-4.192-2.493-.492.1-1.1.6-3.969,3.461-1.874,1.858-3.493,3.557-3.62,3.795a2.939,2.939,0,0,0-.048,2.08,34.676,34.676,0,0,0,2.493,2.683l2.3,2.318-.222.54c-.175.429-.222,2.143-.222,9.495,0,8.939,0,8.971.349,9.622,1.27,2.382,7.431,5.748,12.162,6.653a16.275,16.275,0,0,0,9.59-1.254c.492-.238.524-.238,1.429.318a8.823,8.823,0,0,0,9.193-.191,8.584,8.584,0,0,0,3.477-9.082,8.8,8.8,0,0,0-1.3-2.921c-.222-.254-.191-.4.27-1.556a15.634,15.634,0,0,0,.3-11.543c-1.3-4.112-4.112-8.59-5.922-9.495a4.436,4.436,0,0,0-2.509-.4h-1.715l.127-1.477c.064-.794.111-2.064.111-2.81s-.048-2.016-.111-2.826l-.127-1.461h1.715c2.191,0,2.937-.318,4.112-1.794a13.6,13.6,0,0,0,1.874-2.779,1.312,1.312,0,0,0-.715-1.461c-.746-.318-1.254-.016-2.1,1.191a14.749,14.749,0,0,1-1.35,1.7l-.587.6h-5.335v-1.667a11.539,11.539,0,0,1,.064-1.667,11.988,11.988,0,0,0,2.826-.746,10.907,10.907,0,0,0,.937-2.255,5.847,5.847,0,0,1,1.794-3.191,46.713,46.713,0,0,0,4.192-5.049c.921-1.334.937-1.318,1.1.953a13.507,13.507,0,0,1-.762,5.255c-.54,1.747-.556,1.858-.127,2.4a.977.977,0,0,0,.873.413c.937,0,1.127-.206,1.651-1.826a15.6,15.6,0,0,0,.111-10.368l-.381-1.111.365-1.1a18.321,18.321,0,0,0,.857-5.192,8.337,8.337,0,0,0-5.764-8.272,14.074,14.074,0,0,0-7.907.333l-1.381.413-1.239-.4c-.7-.222-1.635-.476-2.1-.572A17.768,17.768,0,0,0,270.545-511.888Zm5.128,2.525c.143.048-.206.4-1.032.969a70.168,70.168,0,0,0-7.669,6.764l-3.906,3.747-.937,2.032c-.508,1.127-.937,2.064-.953,2.08a22.659,22.659,0,0,1-2.89-.794,16.123,16.123,0,0,1,.587-2.652,11.079,11.079,0,0,1,1.159-3.223,62.462,62.462,0,0,1,6.065-6.1c2.35-1.889,4.239-2.826,6.192-3.033A11.7,11.7,0,0,1,275.673-509.363Zm12.48.286a6.611,6.611,0,0,1,2.874,2.874,4.8,4.8,0,0,1,.524,2.191c.254,4.414-2,8.923-7.193,14.385l-1.524,1.588-.556,1.778a6.4,6.4,0,0,1-.746,1.826c-1.016.3-.984.318-1.778-1.127l-.746-1.381,2.159-2.159c2.62-2.652,2.985-3.3,3.08-5.51a15.729,15.729,0,0,0-.191-3.064,20.405,20.405,0,0,1-.254-2.223c0-1.35-.508-1.921-1.715-1.921a17.936,17.936,0,0,1-2.016-.222,12.944,12.944,0,0,0-4.4-.254c-1.62.3-2.556.905-4.795,3.16l-2.048,2.048-.889-.492-.905-.492,2.143-2.08c5.16-5,7.161-6.573,10.241-8.018a12.567,12.567,0,0,1,4.938-1.4A7.058,7.058,0,0,1,288.153-509.078Zm-8.431,9.542a12.366,12.366,0,0,1,1.461.27,21.877,21.877,0,0,1,.492,3.588c-.048.048-.4-.1-.794-.333a2.335,2.335,0,0,0-2.144-.254c-.3.079-.587.127-.619.079a3.063,3.063,0,0,1,.143-.873,1.7,1.7,0,0,0-.222-1.667c-.238-.492-.429-.921-.429-.953C277.61-499.8,278.245-499.757,279.722-499.535Zm-4.382,1.159a2.759,2.759,0,0,1,.19,1.842,2.66,2.66,0,0,0,.588,2.509c.381.349.524.381,2.032.381a5.353,5.353,0,0,1,2.318.3c.4.175.746.333.794.365a20.627,20.627,0,0,1-1.81,1.937l-1.889,1.889-.984-1.207a39.293,39.293,0,0,0-4.811-4.732,2.547,2.547,0,0,1-.667-.556,42.683,42.683,0,0,1,3.747-3.636A2.284,2.284,0,0,1,275.34-498.376Zm-16.56,6.653a6.665,6.665,0,0,1,1.1.381,3.049,3.049,0,0,1-.381,1.191c-.619,1.365-.619,1.747-.032,2.794.873,1.524.889,1.445-.683,3.017-.937.937-1.524,1.413-1.762,1.413-.476,0-1.477-.905-1.477-1.334,0-.175.429-1.953.953-3.953.524-1.985.953-3.652.953-3.684C257.446-492.041,257.8-491.993,258.779-491.723Zm13.814,9.495c.349.381.841.905,1.064,1.191.508.587.826.619,2.969.191l1.461-.286v2.81h-4.525c-4.319,0-4.541-.016-4.843-.318-.635-.635-.445-1.064,1.223-2.731a9.949,9.949,0,0,1,1.778-1.556A2.776,2.776,0,0,1,272.593-482.228Zm-8.812,15.243,2.128,2.143-.032,1.016c-.048,1.492.222,2,2.175,3.954l1.7,1.715-1.477,1.477L266.8-455.2l-1.54-1.556c-1.889-1.937-2.763-2.413-4.16-2.318l-.937.064-2.191-2.191-2.191-2.191,2.858-2.858c1.572-1.572,2.89-2.858,2.937-2.858S262.622-468.161,263.781-466.986Zm9.542,4.017c0,1.429-.048,1.794-.318,2.239-.333.54-.873.841-1.27.7a13.829,13.829,0,0,1-1.778-1.6c-1.683-1.635-1.874-2.08-1.238-2.715.286-.286.524-.318,2.461-.318h2.143Zm13.4-.889a22.208,22.208,0,0,1,4.636,9.828,11.7,11.7,0,0,1-.413,5.922l-.492,1.572-2.017-1.969c-4.049-3.938-6.415-5.208-9.669-5.208h-1.318l.778-1.159c.429-.619,1.111-1.762,1.524-2.525.794-1.477.762-1.461,1.778-1.159a7.1,7.1,0,0,1,.762,1.889,5.138,5.138,0,0,0,.921,2.08,1.284,1.284,0,0,0,2.016-.921,21.7,21.7,0,0,0-1.715-5.081,19.488,19.488,0,0,0-3.6-.889c-1.826-.365-3.493-.7-3.684-.746-.333-.063-.365-.159-.365-1.254v-1.191h10.13Zm-10.13,4.287a4.318,4.318,0,0,1,1.08.318c.191.159-1.413,2.81-2.731,4.509a29.1,29.1,0,0,1-5.128,5.049,24,24,0,0,1-4.049,2.493c-.1,0-.254-.476-.365-1.064-.175-.969-.175-1.064.1-1.207a4.864,4.864,0,0,0,1.715-2.048c.175-.778,5.1-5.732,6.161-6.192.683-.3,2.016-1.556,2.016-1.889C275.388-459.777,275.467-459.777,276.594-459.571Zm-13.242,4.557c1.223,1.223,1.556,1.651,1.556,2,0,1.159-.746,1.524-3.1,1.524h-1.7l.063-2.239c.048-2.128.064-2.255.429-2.54C261.32-456.856,261.669-456.681,263.352-455.014Zm17.561,4.208c.556.191,1.016.413,1.016.508,0,.079-.286.238-.635.333a9,9,0,0,0-1.111.445,2.694,2.694,0,0,1-1.651.159,2.136,2.136,0,0,1-1.842-.762l-.683-.651.762-.191A8.269,8.269,0,0,1,280.913-450.807Zm-17.592,5.3c.381,1.905.778,3.652.889,3.89.191.349.556.524,2.4,1.143,2.572.857,3.223.905,3.684.318.826-1.048.238-1.731-2.159-2.525a7.414,7.414,0,0,1-1.794-.715c0-.063-.048-.333-.1-.6-.1-.46-.063-.492,1.207-1.143.7-.381,1.842-1.048,2.525-1.508l1.238-.826.1,1.524c.175,3.35,1.445,5.7,5.192,9.59l1.778,1.858-.6.254a12.99,12.99,0,0,1-6.764.7,24.89,24.89,0,0,1-5.462-1.842,21.935,21.935,0,0,1-4.747-3.08l-.476-.492-.048-5-.048-4.986h2.509Zm12.131-2a5,5,0,0,0,.1,1.191,2.634,2.634,0,0,1,.032,1.238,6.838,6.838,0,0,0-.508,1.175c-.365,1-.381,1.016-.587.619a7.912,7.912,0,0,1-.492-4.779l.175-.905.683.667C275.229-447.933,275.5-447.568,275.451-447.5Zm10.193.222a13.889,13.889,0,0,1,2.89,2.525c2.652,2.7,2.969,3.287,2.969,5.494a4.243,4.243,0,0,1-.46,2.461,6.625,6.625,0,0,1-2.922,2.906,4.447,4.447,0,0,1-2.493.429c-2.286,0-2.89-.318-5.573-3-2.493-2.493-2.842-3.1-2.842-4.859a4.416,4.416,0,0,1,.619-2.509c.619-1.286.619-1.334.429-2.112a2.99,2.99,0,0,1-.143-.857c.032-.048.318,0,.619.079a2.265,2.265,0,0,0,2.1-.238A5.065,5.065,0,0,1,285.644-447.282Z" transform="translate(-212.825 512.169)" fill="#fff"/>
      <path id="Path_352" data-name="Path 352" d="M12.194-220.784c-.746.254-1.175.54-3,2.064-3.985,3.334-7.3,7.05-8.542,9.542a4.567,4.567,0,0,0-.587,2.937,12.929,12.929,0,0,0,1.143,5.367c.508,1.254.54,1.413.318,1.667a8.8,8.8,0,0,0-1.3,2.921A8.474,8.474,0,0,0,6.16-186.091a9.234,9.234,0,0,0,2.334.254A8.013,8.013,0,0,0,12.877-187l.905-.556,1.318.54a11.682,11.682,0,0,0,5.287,1.1c1.842,0,1.953-.016,2.985-.524a24.176,24.176,0,0,0,5.573-4.3,75.125,75.125,0,0,0,5.668-6.319c.048-.111.476-.1,1.334.048.7.111,2.3.254,3.572.318,2.207.1,2.318.1,2.747-.238a1.275,1.275,0,0,0,.079-1.874c-.318-.286-.651-.333-2.588-.413-3.049-.143-4.843-.429-4.843-.794,0-.111-.857-1.953-1.889-4.081l-1.889-3.89.7-1.429c1.905-3.874,1.874-6.192-.127-8.129a4.528,4.528,0,0,0-3.382-1.381,9.994,9.994,0,0,0-4.557,1.286l-1.524.73-4-1.937C14.115-220.863,13.258-221.133,12.194-220.784Zm4.89,4.239,3.811,1.842-.191,1.1a6.836,6.836,0,0,1-.27,1.175,28.173,28.173,0,0,1-2.826-.794A27.413,27.413,0,0,0,14.4-214.1c-.318,0-.969.445-2.382,1.6-1.08.889-2.112,1.778-2.3,2a1.168,1.168,0,0,0,.032,1.715c.683.7,1.143.556,2.937-.921.889-.714,1.731-1.4,1.889-1.508.254-.175.365-.064,1.048.953a30.739,30.739,0,0,0,8.637,8.717,7.244,7.244,0,0,1,1.286.937c0,.048-.6.81-1.318,1.683-1.461,1.731-1.7,2.1-1.7,2.6a1.389,1.389,0,0,0,1.334,1.111c.619,0,.714-.1,2.937-2.779,1.223-1.477,1.445-1.826,1.445-2.3a23.885,23.885,0,0,0-.857-3.255c-.984-3.064-1.048-2.779.667-3l.842-.111,1.826,3.731a42.708,42.708,0,0,1,1.81,4.049c0,.746-6,7.129-8.336,8.876-1.731,1.286-2.493,1.62-3.731,1.62a12.845,12.845,0,0,1-4.033-.857l-.6-.254,1.191-1.27c2.493-2.652,3.1-5.367,1.889-8.479a3.06,3.06,0,0,1-.333-2.175,2.66,2.66,0,0,0-.587-2.54c-.381-.349-.54-.381-2.1-.4a5.126,5.126,0,0,1-2.429-.349,8.079,8.079,0,0,0-3.89-.556,2.65,2.65,0,0,1-1.175.016,1.174,1.174,0,0,0-.7-.032,15.717,15.717,0,0,0-2.191,1.921l-1.842,1.842-.508-1.572a13.961,13.961,0,0,1-.587-2.842,2.95,2.95,0,0,1,.413-2.207,19.8,19.8,0,0,1,1.508-2.223c1.794-2.286,7.923-8.034,8.59-8.034C13.194-218.386,15-217.561,17.084-216.544ZM26.4-214.1c-2.08,2.064-2.445,2.382-2.89,2.382-.286,0-.508-.048-.508-.127,0-.063.111-.714.238-1.461s.238-1.35.238-1.365a27.025,27.025,0,0,1,3.684-1.556C29.008-216.735,28.992-216.671,26.4-214.1Zm4.239.651a17.424,17.424,0,0,1-.984,2.54l-.81,1.683-1.413.206a6.329,6.329,0,0,1-1.508.111,1.138,1.138,0,0,1,.016-.619c.079-.4.683-1.1,2.35-2.779a11.941,11.941,0,0,1,2.382-2.128A1.839,1.839,0,0,1,30.644-213.448Zm-9.892,3.874a9.716,9.716,0,0,0,1.953.4h.572l.1.842a18.22,18.22,0,0,0,.508,2.159,10.154,10.154,0,0,1,.349,1.4c-.206.191-4.192-3.684-5.065-4.922-.3-.413-.318-.476-.064-.381C19.259-210.019,19.99-209.8,20.752-209.574Zm-7.685,7.542a2.572,2.572,0,0,0,2.3.318c.3-.079.587-.127.619-.079a2.988,2.988,0,0,1-.143.857c-.191.778-.191.826.4,2.064a4.993,4.993,0,0,1,.508,3.858c-.333,1.159-.651,1.445-.778.7-.3-1.842-2.477-5.684-4.462-7.859l-.492-.54.556.111A6.287,6.287,0,0,1,13.067-202.032ZM10.7-199.016c1.81,2.413,2.937,4.938,2.937,6.589a3.81,3.81,0,0,1-1.715,2.937,5.429,5.429,0,0,1-3.827,1.08,5.869,5.869,0,0,1-5.033-3.382,4.243,4.243,0,0,1-.46-2.461c0-2.239.3-2.794,3.128-5.668L8-202.223l.842.937C9.3-200.778,10.146-199.762,10.7-199.016Z" transform="translate(0.021 267.157)" fill="#fff"/>
    </g>
  </g>
</svg>
