<svg xmlns="http://www.w3.org/2000/svg" width="159" height="164" viewBox="0 0 159 164">
  <g id="Group_70" data-name="Group 70" transform="translate(-737 -2842)">
    <ellipse id="Ellipse_82" data-name="Ellipse 82" cx="79.5" cy="82" rx="79.5" ry="82" transform="translate(737 2842)" fill="#7b1fa2"/>
    <g id="creative" transform="translate(729.84 3379.141)">
      <path id="Path_353" data-name="Path 353" d="M243.98-497.752c-.891.392-.98.838-.98,4.759,0,4.029.107,4.439,1.141,4.8a1.9,1.9,0,0,0,2.05-.677,21.721,21.721,0,0,0,.2-4.136,21.72,21.72,0,0,0-.2-4.136,2.744,2.744,0,0,0-1.533-.856A6.188,6.188,0,0,0,243.98-497.752Z" transform="translate(-158.122)" fill="#fff"/>
      <path id="Path_354" data-name="Path 354" d="M107.98-441.455a1.808,1.808,0,0,0-.98,1.729c0,.463.392.963,2.46,3.066,1.337,1.39,2.567,2.62,2.71,2.727a1.732,1.732,0,0,0,2.567-.677c.463-1.087.232-1.48-2.549-4.278C109.406-441.669,109.014-441.919,107.98-441.455Z" transform="translate(-46.364 -46.315)" fill="#fff"/>
      <path id="Path_355" data-name="Path 355" d="M360.234-441.638c-.8.357-5.437,5.152-5.472,5.651-.089,1.6.535,2.264,2.121,2.157a38.4,38.4,0,0,0,5.526-5.437,1.683,1.683,0,0,0-.749-2.353A1.2,1.2,0,0,0,360.234-441.638Z" transform="translate(-249.954 -46.132)" fill="#fff"/>
      <path id="Path_356" data-name="Path 356" d="M137.124-432.634a23.973,23.973,0,0,0-13.672,6.934,24.445,24.445,0,0,0-6.685,12.389,32.748,32.748,0,0,0,0,9.608,27.169,27.169,0,0,0,1.8,5.49,26.636,26.636,0,0,0,7.326,9.073c2.068,1.586,2.371,2.193,2.549,5.169.143,2.46.428,3.137,1.676,3.957l.731.481,10.2.089,10.2.089.463.428a1.077,1.077,0,0,1,.125,1.64l-.339.428-9.073.089-9.055.089-1,.5a5.511,5.511,0,0,0-1.586,8.859c1.551,1.533,1.658,1.551,10.143,1.711,6.863.125,7.38.143,7.79.463a1.181,1.181,0,0,1-.3,2.014c-.41.214-1.622.267-6.809.267H135.27l-.535.5a2.1,2.1,0,0,0-.517,2.406c.517,1.212.553,1.212,8.289,1.159,6.72-.053,6.916-.071,7.7-.446a5.88,5.88,0,0,0,2.656-2.727,4.293,4.293,0,0,0,.446-2.317,5.3,5.3,0,0,0-3.636-5.169c-.481-.178-2.424-.267-8.075-.339l-7.469-.107-.339-.428a1.263,1.263,0,0,1,.036-1.729c.357-.321.838-.339,9.412-.428,8.7-.089,9.055-.107,9.84-.463a5.459,5.459,0,0,0,2.656-2.6,4.263,4.263,0,0,0,.535-2.46,4.263,4.263,0,0,0-.535-2.46,5.459,5.459,0,0,0-2.656-2.6c-.8-.357-1.087-.374-10.66-.428l-9.858-.053v-1.23a8.724,8.724,0,0,0-1.8-5.579,28.742,28.742,0,0,0-2.567-2.353,20.377,20.377,0,0,1-4.9-5.615,19.985,19.985,0,0,1-2.692-12.211,20.267,20.267,0,0,1,16.792-17.844,22.467,22.467,0,0,1,8.449.374,20.491,20.491,0,0,1,14.9,16.31,24.749,24.749,0,0,1-.089,6.97,20.533,20.533,0,0,1-7.647,12.407c-1.087.838-1.373,1.3-1.373,2.21,0,1.818,1.943,2.6,3.619,1.48a31.3,31.3,0,0,0,2.727-2.478,24.166,24.166,0,0,0,6.774-12.389,34.157,34.157,0,0,0,.036-9.626,24.575,24.575,0,0,0-11.711-16.453A24.827,24.827,0,0,0,137.124-432.634Z" transform="translate(-54.099 -53.496)" fill="#fff"/>
      <path id="Path_357" data-name="Path 357" d="M51.331-304.733a1.662,1.662,0,0,0-.606,2.1,1.82,1.82,0,0,0,.606.82,21.72,21.72,0,0,0,4.136.2,21.72,21.72,0,0,0,4.136-.2,1.9,1.9,0,0,0,.677-2.05c-.357-1.052-.767-1.141-4.849-1.141C52.614-304.982,51.7-304.929,51.331-304.733Z" transform="translate(0 -158.598)" fill="#fff"/>
      <path id="Path_358" data-name="Path 358" d="M400.394-304.537a1.668,1.668,0,0,0-.089,2.46l.481.463h3.9a22.952,22.952,0,0,0,4.278-.2,1.9,1.9,0,0,0,.677-2.05c-.357-1.052-.749-1.141-4.973-1.141h-3.726Z" transform="translate(-286.977 -158.598)" fill="#fff"/>
    </g>
  </g>
</svg>
