<svg xmlns="http://www.w3.org/2000/svg" width="159" height="164" viewBox="0 0 159 164">
  <g id="Group_67" data-name="Group 67" transform="translate(-1514 -2842)">
    <circle id="Ellipse_95" data-name="Ellipse 95" cx="8" cy="8" r="8" transform="translate(1617 2860)" fill="#ff6f00"/>
    <ellipse id="Ellipse_79" data-name="Ellipse 79" cx="79.5" cy="82" rx="79.5" ry="82" transform="translate(1514 2842)" fill="#7b1fa2"/>
    <g id="customer-service" transform="translate(1551.295 3394.873)">
      <path id="Path_365" data-name="Path 365" d="M348.167-511.574a3.983,3.983,0,0,0-1.264.952c-.9,1.182-.9,1.232-.9,8a54.231,54.231,0,0,0,.2,6.9,4.307,4.307,0,0,0,2.167,2.381c.739.345,1.067.394,3.021.394,1.757,0,2.167.049,2.167.23,0,.131-.3,1.954-.657,4.056s-.64,3.842-.591,3.875c.033.033,2.972-1.773,6.519-4.007l6.47-4.072,2.545-.082c2.414-.082,2.578-.1,3.333-.542a4.266,4.266,0,0,0,1.9-2.447,49.623,49.623,0,0,0,.148-6.946c-.049-6.043-.066-6.256-.41-6.9a5.649,5.649,0,0,0-.9-1.182c-1.117-1.067-.673-1.034-12.332-1.034H349.021Zm21.724,2.775.41.394v5.846a56.7,56.7,0,0,1-.164,6.158c-.263.493-1.1.657-3.448.657h-2.233l-4.072,2.545c-2.25,1.412-4.105,2.529-4.138,2.5s.131-1.117.345-2.43c.23-1.3.411-2.414.411-2.479a30.738,30.738,0,0,0-3.695-.164c-3.58-.049-3.695-.066-4.056-.427-.378-.361-.378-.378-.427-6.207l-.049-5.829.493-.476.476-.493H369.5Z" transform="translate(-289.022)" fill="#fff"/>
      <path id="Path_366" data-name="Path 366" d="M379-477.6v1.4h16.42V-479H379Z" transform="translate(-316.604 -27.582)" fill="#fff"/>
      <path id="Path_367" data-name="Path 367" d="M379-444.6v1.4h11V-446H379Z" transform="translate(-316.604 -55.163)" fill="#fff"/>
      <path id="Path_368" data-name="Path 368" d="M461-444.6v1.4h2.956V-446H461Z" transform="translate(-385.139 -55.163)" fill="#fff"/>
      <path id="Path_369" data-name="Path 369" d="M38.915-487.564A38.015,38.015,0,0,0,8.324-467.088a39.31,39.31,0,0,0-2.775,6.962,6.261,6.261,0,0,1-.46,1.445,20.741,20.741,0,0,1-1.232-1.97,13.47,13.47,0,0,0-1.264-1.97,25.471,25.471,0,0,0-2.4,1.4c-.066.049,4.483,7.734,4.729,8.013a74.019,74.019,0,0,0,8-4.745,7.575,7.575,0,0,0-1.3-2.3,6.439,6.439,0,0,0-1.741.854c-.87.509-1.642.969-1.708,1-.2.1.509-2.233,1.2-4.007a35.2,35.2,0,0,1,9.737-13.777,35.513,35.513,0,0,1,19.54-8.456,37.976,37.976,0,0,1,12.43,1,12.957,12.957,0,0,0,1.4.328,7.952,7.952,0,0,0,.887-2.578c0-.2-3.333-1.034-5.337-1.346A38.306,38.306,0,0,0,38.915-487.564Z" transform="translate(0 -20.315)" fill="#fff"/>
      <path id="Path_370" data-name="Path 370" d="M39.3-429.413a17.906,17.906,0,0,0-14.368,13.038c-.328,1.182-.361,1.691-.411,8.128-.082,7.553-.082,7.586.936,9.048a5.342,5.342,0,0,0,2.594,1.938c.624.2.673.246.936,1.248A13.823,13.823,0,0,0,34.5-388.4c1.412.9,1.363.936-4.089,1.921-2.677.476-5.337,1.051-5.911,1.264a9.533,9.533,0,0,0-5.714,6.092l-.443,1.232L15.9-380.333c-2-2.02-2.43-2.529-2.43-2.923s.493-.969,2.906-3.4l2.923-2.923-5.09-5.09-5.09-5.09-3.465,3.465c-3.695,3.695-4.4,4.614-4.992,6.535a9.422,9.422,0,0,0,.509,7.061l.657,1.412,10.181,10.2c6.6,6.6,10.493,10.378,11.051,10.706A7.617,7.617,0,0,0,28-359.118c3.678,0,4.433-.394,9.557-5.057,1.97-1.806,3.645-3.366,3.744-3.5.115-.164-.082-.476-.821-1.215l-.969-.985H53.995c7.964,0,14.483-.016,14.483-.049,0-.41-3.58-10.558-3.957-11.231a9.6,9.6,0,0,0-3.957-3.662c-1.3-.64-1.724-.739-6.5-1.609-4.2-.772-5.123-.985-5.123-1.2,0-.148.427-.542.936-.887a17.149,17.149,0,0,0,2.1-1.823l1.182-1.215h1.626a12.179,12.179,0,0,0,2.282-.181,5,5,0,0,0,2.529-2.562c.115-.411.181-3.859.181-10,0-10.312-.049-10.969-.985-13.563a17.76,17.76,0,0,0-13.054-11.4A22.244,22.244,0,0,0,39.3-429.413Zm7.011,3.3a14.32,14.32,0,0,1,6.585,4.154,15.109,15.109,0,0,1,3.695,6.782,51.645,51.645,0,0,1,.361,7.865,5.414,5.414,0,0,1-.69-.246c-.558-.23-.591-.3-.591-.969v-.706l-1.839-.1a14.737,14.737,0,0,1-5.846-1.429,13.631,13.631,0,0,1-4.319-3.071,10.777,10.777,0,0,0-1.56-1.363,4.014,4.014,0,0,0-.969.837,16.88,16.88,0,0,1-7.553,4.581,16.914,16.914,0,0,1-3.235.443l-1.938.1v.772c0,.608-.066.8-.279.87a5.191,5.191,0,0,0-.608.2c-.3.131-.3,0-.213-3.383.082-4.056.3-5.156,1.511-7.619a15.023,15.023,0,0,1,7.849-7.291,12.19,12.19,0,0,1,5.862-.936A10.447,10.447,0,0,1,46.31-426.113ZM44.274-409.5a18.135,18.135,0,0,0,7.258,2.857l1.346.2v3.875c0,4.3-.164,5.452-.969,7.192l-.493,1.034H42.041v2.791h3.481c3.908,0,3.842-.033,2.02,1.067a10.688,10.688,0,0,1-7.307,1.33,11.088,11.088,0,0,1-8.391-7.323c-.345-.985-.378-1.429-.443-5.517l-.066-4.433,1.346-.213a18.918,18.918,0,0,0,5.583-1.839,20.25,20.25,0,0,0,3.612-2.529c.181-.213.3-.181.821.312A16.9,16.9,0,0,0,44.274-409.5Zm12.709,13.038c0,1.067-.033,1.2-.476,1.642a1.361,1.361,0,0,1-1.166.476c-.591,0-.673-.033-.575-.3a13.951,13.951,0,0,0,.575-1.806c.115-.46.263-.69.46-.69a2.2,2.2,0,0,0,.69-.246c.23-.131.427-.23.46-.246A10.947,10.947,0,0,1,56.983-396.458Zm-42.446,7.537-.657.657L10.842-391.3,7.821-394.34l.64-.657.64-.657,3.054,3.038,3.038,3.038ZM11.384-385.7c-.164.263-.394.69-.509.936a6.067,6.067,0,0,0,.049,3.2c.328.772,10.722,11.248,11.642,11.724A4.335,4.335,0,0,0,26.8-370.1l.575-.394,3.021,3.021,3,3.021-.624.64a6.566,6.566,0,0,1-7.57,1.264c-1.067-.525-1.9-1.33-11.1-10.558-11.281-11.314-10.821-10.739-10.952-13.4a6.273,6.273,0,0,1,1.921-5.09l.575-.608,3.038,3.021,3.021,3.021Zm30.739-.427a15.045,15.045,0,0,0,2.677-.23c.558-.115,1.018-.2,1.018-.2,0,.016-.837.854-1.855,1.872l-1.839,1.839L40.268-384.7,38.4-386.573l1.051.214A15.045,15.045,0,0,0,42.123-386.13Zm2.923,4.5,2.988-2.988,5.09.952c2.808.509,5.369,1.067,5.731,1.215a6.959,6.959,0,0,1,2.874,2.4,19.038,19.038,0,0,1,1.708,4.187l1.067,3.2H36.7l-2.627-2.627c-1.445-1.445-2.693-2.627-2.759-2.627a31.5,31.5,0,0,0-2.627,2.266c-3.662,3.317-3.678,3.317-4.253,3.317-.427,0-.788-.263-2.151-1.626l-1.642-1.609.608-1.79c.969-2.808,2.282-4.384,4.3-5.14.46-.181,3-.723,5.665-1.215l4.828-.887,3,2.972,2.988,2.972ZM34.291-370.974l2.988,2.988-.788.788-.772.772-3.038-3.038L29.66-372.5l.722-.739a4.77,4.77,0,0,1,.821-.739C31.253-373.979,32.632-372.632,34.291-370.974Z" transform="translate(-0.006 -68.893)" fill="#fff"/>
      <path id="Path_371" data-name="Path 371" d="M425.979-355.059c-1.3,2.151-2.348,3.99-2.348,4.089a10.326,10.326,0,0,0,2.332,1.494A11.182,11.182,0,0,0,427-351.085c.525-.87,1.051-1.724,1.149-1.888.164-.246.263-.066.624,1.232a35.262,35.262,0,0,1,.1,18.834c-1.149,4.368-2.988,8.013-6.387,12.709-.246.345-.148.476,1.461,1.724l.542.427.41-.476a49.43,49.43,0,0,0,3.892-6.158,39.614,39.614,0,0,0,3.826-11.823,47.856,47.856,0,0,0-.082-11.675c-.312-1.708-.87-4.105-1.281-5.452-.066-.2.476.049,1.691.788a14.265,14.265,0,0,0,1.954,1.067,8.574,8.574,0,0,0,1.511-2.381c-.066-.066-8.03-4.844-8.062-4.844C428.327-359,427.26-357.227,425.979-355.059Z" transform="translate(-352.86 -127.878)" fill="#fff"/>
    </g>
  </g>
</svg>
