<svg xmlns="http://www.w3.org/2000/svg" width="159" height="164" viewBox="0 0 159 164">
  <g id="Group_69" data-name="Group 69" transform="translate(-996 -2842)">
    <ellipse id="Ellipse_81" data-name="Ellipse 81" cx="79.5" cy="82" rx="79.5" ry="82" transform="translate(996 2842)" fill="#7b1fa2"/>
    <g id="solution" transform="translate(1018.5 3379.89)">
      <path id="Path_381" data-name="Path 381" d="M179.666-495.771a2.89,2.89,0,0,0-1.583,2.65c0,.633-.017.667-1.233,1.333a7.732,7.732,0,0,0-1.333.833c-.05.067-.45-.033-.883-.25a2.675,2.675,0,0,0-2.667-.05c-.633.3-.867.6-1.867,2.283-1.617,2.767-1.683,2.917-1.683,3.9a2.563,2.563,0,0,0,1.383,2.383l.583.317v3.267l-.567.333a2.7,2.7,0,0,0-1.25,3.583,36.485,36.485,0,0,0,2.467,4.217,2.885,2.885,0,0,0,3.65.733l.683-.35.7.483a12.57,12.57,0,0,0,1.35.75c.583.267.633.333.717,1.183a2.794,2.794,0,0,0,1.383,2.367c.617.35.8.367,3.683.333,2.75-.05,3.067-.083,3.483-.4a2.626,2.626,0,0,0,1.2-2.217c.067-.95.083-1,.7-1.267a12.57,12.57,0,0,0,1.35-.75l.7-.483.683.35a2.964,2.964,0,0,0,3.533-.567,22.71,22.71,0,0,0,1.533-2.483c1.083-1.9,1.2-2.2,1.2-3a2.608,2.608,0,0,0-1.3-2.4l-.65-.433v-1.617l-.017-1.617.7-.433a2.637,2.637,0,0,0,1.267-2.4c0-.867-.083-1.05-1.7-3.8-1.017-1.733-1.25-2.017-1.85-2.3a2.9,2.9,0,0,0-2.617.033c-.817.35-.817.35-1.283.017-.25-.183-.867-.517-1.333-.767-.833-.417-.883-.483-.883-1.067a3.419,3.419,0,0,0-1.317-2.483c-.533-.367-.717-.383-3.583-.367A22.357,22.357,0,0,0,179.666-495.771Zm5.417,3.333a2.767,2.767,0,0,0,1.833,2.733,14.968,14.968,0,0,1,1.733,1,3.034,3.034,0,0,0,3.4.433l.7-.317.233.367c.567.867,1.767,3,1.733,3.017a6.553,6.553,0,0,0-1.65,1.5c-.267.45-.317.85-.317,2.983a8.138,8.138,0,0,0,.25,2.933,4.232,4.232,0,0,0,1.483,1.433c.233.15.15.367-.683,1.833-.517.917-.95,1.7-.983,1.733A2.8,2.8,0,0,1,192-473.1c-1.15-.567-2.1-.417-3.533.533-.617.417-1.467.933-1.883,1.15a2.512,2.512,0,0,0-1.5,2.417v.9h-4.167v-.717a2.754,2.754,0,0,0-1.517-2.567c-.467-.25-1.25-.717-1.717-1.033-1.683-1.1-2.483-1.25-3.75-.683a3.645,3.645,0,0,1-.783.3c-.083-.1-1.9-3.283-1.9-3.35a3.831,3.831,0,0,1,.667-.517c1.067-.7,1.233-1.167,1.25-3.85.05-3.017-.183-3.633-1.683-4.517-.283-.167-.217-.3.683-1.867a12.25,12.25,0,0,1,1.083-1.7,5.136,5.136,0,0,1,.75.333c1.133.583,2.017.417,3.683-.683.467-.317,1.233-.767,1.7-1.017a2.883,2.883,0,0,0,1.533-2.6v-.7h4.167Z" transform="translate(-125.915 0)" fill="#fff"/>
      <path id="Path_382" data-name="Path 382" d="M221.917-445.228a6.866,6.866,0,0,0-4.933,3.717c-.45.933-.483,1.133-.483,2.917s.033,1.983.483,2.917a7.522,7.522,0,0,0,3.183,3.183c.933.45,1.133.483,2.917.483s1.983-.033,2.917-.483a7.521,7.521,0,0,0,3.183-3.183c.45-.933.483-1.133.483-2.917a5.172,5.172,0,0,0-.433-2.833A6.776,6.776,0,0,0,221.917-445.228Zm2.833,3.15a3.857,3.857,0,0,1-1.667,7.317,3.793,3.793,0,0,1-3.833-3.883A3.818,3.818,0,0,1,224.75-442.078Z" transform="translate(-166.083 -42.176)" fill="#fff"/>
      <path id="Path_383" data-name="Path 383" d="M63.927-417.32c-4.933,1.65-5.417,1.9-5.417,2.833,0,.683.25.967,1.783,2.167.817.617,1.533,1.167,1.6,1.233a6.04,6.04,0,0,1-.9,1.75A33.389,33.389,0,0,0,56.277-396.4a42.456,42.456,0,0,0-.017,9.317,36.094,36.094,0,0,0,1.133,5.1,11.616,11.616,0,0,0,2.517-.767,6.855,6.855,0,0,0-.283-1.95,25.8,25.8,0,0,1-.8-7.133,29.607,29.607,0,0,1,3.1-13.333c.883-1.8,2.2-3.917,2.45-3.917a9.653,9.653,0,0,1,1.633,1.167c1.783,1.417,2.15,1.583,2.917,1.267a1.1,1.1,0,0,0,.733-.883c.1-.35.317-2.783.517-5.417.25-3.633.3-4.867.15-5.183a1.5,1.5,0,0,0-1.367-.767C68.76-418.9,66.494-418.186,63.927-417.32ZM67.26-413.3a14.666,14.666,0,0,1-.233,2.317c-.067.117-.833-.383-2.05-1.333-1.067-.833-1.95-1.55-1.967-1.6a42.535,42.535,0,0,1,4.233-1.483A8.5,8.5,0,0,1,67.26-413.3Z" transform="translate(-33.344 -64.185)" fill="#fff"/>
      <path id="Path_384" data-name="Path 384" d="M363.4-417.883l-.8,1.117.733.583a30.572,30.572,0,0,1,9,11.1,31.843,31.843,0,0,1,2.717,8.617l.1.633h-2.167c-1.933,0-2.183.033-2.483.333a1.332,1.332,0,0,0-.333.967c0,.533.417,1.25,2.833,4.867,1.55,2.317,2.933,4.283,3.033,4.367a2.217,2.217,0,0,0,1.667-.083c.15-.1,1.517-2.067,3.033-4.367,2.333-3.517,2.767-4.267,2.767-4.783a1.245,1.245,0,0,0-.367-.967c-.333-.3-.583-.333-2.733-.333h-2.367l-.2-1.217a33.925,33.925,0,0,0-6.317-14.9,45.531,45.531,0,0,0-6.133-6.267,11.936,11.936,0,0,0-1.1-.783A7.072,7.072,0,0,0,363.4-417.883Zm15.817,25.2c-1.283,2-2.317,3.517-2.383,3.517s-1.1-1.517-2.383-3.517l-.317-.483h5.4Z" transform="translate(-286.833 -64.104)" fill="#fff"/>
      <path id="Path_385" data-name="Path 385" d="M400-222.667v1.333h2.667V-224H400Z" transform="translate(-318 -226.604)" fill="#fff"/>
      <path id="Path_386" data-name="Path 386" d="M340.5-203l-1,1,1.05,1.05,1.033,1.033,1.033-1.033,1.05-1.05-1-1a9.578,9.578,0,0,0-1.083-1A9.578,9.578,0,0,0,340.5-203Z" transform="translate(-268.161 -243.271)" fill="#fff"/>
      <path id="Path_387" data-name="Path 387" d="M352.75-200.45a10.706,10.706,0,0,0-8.683,7.233,8.368,8.368,0,0,0-.467,3.2,9.451,9.451,0,0,0,2.167,6.433,12.065,12.065,0,0,1,2.733,7.433c.183,2.7.583,3.783,1.867,4.983a4.75,4.75,0,0,0,3.883,1.483,4.305,4.305,0,0,0,2.617-.55c2.083-1.033,2.933-2.517,3.15-5.55a12.764,12.764,0,0,1,2.65-7.567,12.551,12.551,0,0,0,2.15-4.383,14.381,14.381,0,0,0-.067-4.933,10.529,10.529,0,0,0-3.633-5.533A13.338,13.338,0,0,0,357-200.233,14.757,14.757,0,0,0,352.75-200.45Zm3.667,3.05a8.409,8.409,0,0,1,4.35,3.017,6.971,6.971,0,0,1,1.367,4.75A7.07,7.07,0,0,1,360.4-185.1a16.51,16.51,0,0,0-2.5,4.75l-.367,1.167-.933.05-.933.05v-4.6l1.2-1.2,1.217-1.217-1.05-1.033L356-188.183l-.833.833-.833.817-.833-.817-.833-.833-1.033,1.05-1.05,1.033,1.217,1.217,1.2,1.2v4.6l-.933-.05-.933-.05-.367-1.167a16.168,16.168,0,0,0-2.45-4.667,8.792,8.792,0,0,1-1.833-3.883c-.567-2.917,1.317-6.5,4.183-7.95A8.347,8.347,0,0,1,356.417-197.4Zm.75,21.917a2.817,2.817,0,0,1-1.55,2.7,2.811,2.811,0,0,1-4.117-2.7v-.95h5.667Z" transform="translate(-271 -246.171)" fill="#fff"/>
      <path id="Path_388" data-name="Path 388" d="M460.5-195l-1,1,1.05,1.05,1.033,1.033,1.033-1.033,1.05-1.05-1-1a9.58,9.58,0,0,0-1.083-1A9.584,9.584,0,0,0,460.5-195Z" transform="translate(-367.583 -249.938)" fill="#fff"/>
      <path id="Path_389" data-name="Path 389" d="M16.333-175.667c-.333.333-.333.55-.333,10.033v9.717l3.383,3.283,3.367,3.283,8.283.017c8.083,0,8.317-.017,8.633-.333.333-.333.333-.55.333-13s0-12.667-.333-13S39.117-176,28-176,16.667-176,16.333-175.667Zm21,13V-152H31.25c-3.35,0-6.083-.017-6.083-.05s.267-1.367.583-2.95c.7-3.45.717-3.717.167-4.25-.533-.55-.8-.533-4.25.167-1.583.317-2.917.583-2.95.583s-.05-3.333-.05-7.417v-7.417H37.333ZM23.1-156.217c-.033.167-.167.85-.283,1.517l-.2,1.217-1.15-1.133a9.885,9.885,0,0,1-1.133-1.233,17.565,17.565,0,0,1,2.717-.633C23.133-156.483,23.15-156.367,23.1-156.217Z" transform="translate(0 -266.604)" fill="#fff"/>
      <path id="Path_390" data-name="Path 390" d="M48-142.667v1.333H61.333V-144H48Z" transform="translate(-26.667 -293.271)" fill="#fff"/>
      <path id="Path_391" data-name="Path 391" d="M48-102.667v1.333H61.333V-104H48Z" transform="translate(-26.667 -326.604)" fill="#fff"/>
      <path id="Path_392" data-name="Path 392" d="M96-62.667v1.333h5.333V-64H96Z" transform="translate(-66.31 -359.938)" fill="#fff"/>
      <path id="Path_393" data-name="Path 393" d="M320-150.667v1.333h2.667V-152H320Z" transform="translate(-252.023 -286.604)" fill="#fff"/>
      <path id="Path_394" data-name="Path 394" d="M480-150.667v1.333h2.667V-152H480Z" transform="translate(-384.667 -286.604)" fill="#fff"/>
      <path id="Path_395" data-name="Path 395" d="M191.25-101.7c-.367.133-2.45.8-4.633,1.5C182.383-98.836,182-98.636,182-97.67c0,.467.467,1.083,3.267,4.383,1.8,2.117,3.433,3.95,3.633,4.083a1.354,1.354,0,0,0,1.633-.067c.317-.25.55-.833,1.05-2.633l.633-2.3,2.6-.017a30.8,30.8,0,0,0,8.167-1.083,39.659,39.659,0,0,0,5.3-1.883,16.444,16.444,0,0,0-1.15-2.6c-.033,0-.717.267-1.517.583a31.508,31.508,0,0,1-10.483,2.15c-1.183.067-2.133.083-2.133.067,0-.033.233-.8.5-1.717.6-2.033.617-2.317.083-2.833C193.117-102.02,192.333-102.07,191.25-101.7Zm-1.5,5.683c-.4,1.333-.75,2.467-.8,2.5a12.005,12.005,0,0,1-1.55-1.617,7.69,7.69,0,0,1-1.317-1.783c.317-.117,4.167-1.483,4.283-1.517A16.052,16.052,0,0,1,189.75-96.02Z" transform="translate(-137.303 -328.318)" fill="#fff"/>
    </g>
  </g>
</svg>
