<svg xmlns="http://www.w3.org/2000/svg" width="116.415" height="116.419" viewBox="0 0 116.415 116.419">
  <g id="film-editing" transform="translate(0 512.008)">
    <path id="Path_472" data-name="Path 472" d="M10.5-511.415a5.27,5.27,0,0,0-2.66,2.888c-.3.728-.341,4.57-.341,32.447v31.605H5.98c-2.66.023-4.388,1-5.412,3.024L0-440.292v40.632l.546,1.069a4.71,4.71,0,0,0,2.638,2.524c1,.455,1.342.477,25.011.477,22.738,0,24.034-.023,24.9-.432a6.73,6.73,0,0,0,2.8-2.615c.341-.637.387-1.819.455-11.915l.068-11.187H63.62l.136,1.523c.682,6.98,3.115,12.369,7.64,16.894a26.776,26.776,0,0,0,11.983,6.98,34.622,34.622,0,0,0,10.937.523,26.424,26.424,0,0,0,21.692-20.919,31.744,31.744,0,0,0-.341-11.892A26.7,26.7,0,0,0,99.25-446.636l-1.364-.523-.068-6.048-.045-6.048h6.776c7.617,0,8.39-.114,9.982-1.478a6.151,6.151,0,0,0,1.41-1.8c.477-.978.477-1.069.432-19.623L116.3-500.8l-.682-1.114a6.148,6.148,0,0,0-1.8-1.8l-1.114-.682-7.435-.068-7.435-.068-.114-1.751a5.716,5.716,0,0,0-1.819-4.3c-1.614-1.546,1.819-1.432-43.338-1.432H11.687Zm82.606,3.843c.478.455.568.773.568,1.819v1.251H64.211l-1.16.568a5.446,5.446,0,0,0-3.024,5.343V-497H11.369v-4.8c0-4.843.091-5.434.887-6.048.273-.227,9.277-.273,40.337-.3H92.565Zm18.372,7.185a1.785,1.785,0,0,1,.819.819c.182.387.25,5.639.25,17.826v17.281l-.568.546-.546.568H103.07l-8.367.023L92-459.71c-2.865,3.865-3.32,4.229-4.434,3.615a28.344,28.344,0,0,1-3.206-3.8l-2.615-3.456H73.511c-4.525,0-8.39-.068-8.595-.136-1.023-.409-1.023-.409-1.023-18.622v-17.212l.659-.659.659-.659H88.086C104.343-500.638,111.1-500.569,111.483-500.387ZM30.014-468.8v24.329H11.369v-48.659H30.014Zm30.014-9.573v14.757l.637,1.205a5.483,5.483,0,0,0,3.683,2.91,76.772,76.772,0,0,0,8.277.25h7.14l2.251,3c1.842,2.456,2.478,3.138,3.411,3.661a5.52,5.52,0,0,0,7.049-1.114l1.205-1.251v6.753H90.337a23.594,23.594,0,0,0-8.663,1.342,25.881,25.881,0,0,0-14.893,12.779,28.615,28.615,0,0,0-2.547,7.185l-.159,1.069H56.389v-6.958a54.4,54.4,0,0,0-.273-7.913,6.753,6.753,0,0,0-3.5-3.5c-.659-.182-3.524-.273-9.845-.273h-8.89v-48.659H60.027Zm34.448,34.561a22.7,22.7,0,0,1,16.917,14.961,22.452,22.452,0,0,1-14.643,28.331,21.5,21.5,0,0,1-16.371-1.319,21.967,21.967,0,0,1-12.551-21.032A22.221,22.221,0,0,1,79.173-441.36a26.3,26.3,0,0,1,7.3-2.638A26.293,26.293,0,0,1,94.475-443.816Zm-42.588,3.843.523.523.068,19.327.045,19.327-.659.682-.659.659H5.071l-.614-.591-.591-.614v-38.631l.659-.659.682-.659,23.079.045,23.079.068Z" transform="translate(0 0)" fill="#ff6f00"/>
    <path id="Path_473" data-name="Path 473" d="M66-477.067v1.933h3.865V-479H66Z" transform="translate(-50.993 -25.503)" fill="#ff6f00"/>
    <path id="Path_474" data-name="Path 474" d="M99-477.067v1.933h3.865V-479H99Z" transform="translate(-76.49 -25.503)" fill="#ff6f00"/>
    <path id="Path_475" data-name="Path 475" d="M132-477.067v1.933h3.865V-479H132Z" transform="translate(-101.986 -25.503)" fill="#ff6f00"/>
    <path id="Path_476" data-name="Path 476" d="M327.983-445.513A7.561,7.561,0,0,0,324-441.784a5.737,5.737,0,0,0-.728,3.251v1.774l-1.387.728c-.75.409-2.251,1.205-3.342,1.751l-1.933,1.023-8.39-4.434c-4.616-2.456-8.618-4.5-8.913-4.57a2.26,2.26,0,0,0-2.115.841,2.155,2.155,0,0,0,.3,2.41c.273.273,3.615,2.115,7.435,4.138,3.8,2.024,7,3.752,7.094,3.843a75.75,75.75,0,0,1-7.117,4,76.8,76.8,0,0,0-7.594,4.32,1.975,1.975,0,0,0,1.523,3.092c.523,0,3.206-1.319,9.277-4.525l8.527-4.525,3.07,1.614c1.683.864,3.183,1.683,3.32,1.774a4.544,4.544,0,0,1,.25,1.887,6.527,6.527,0,0,0,.637,3.07,7.638,7.638,0,0,0,13.779.2,9.059,9.059,0,0,0,.2-6.162,8,8,0,0,0-4.116-4.206l-1.182-.432,1.251-.568a7.849,7.849,0,0,0,3.706-3.411,8.481,8.481,0,0,0,.318-6.435,7.511,7.511,0,0,0-4.138-4.161A8.756,8.756,0,0,0,327.983-445.513Zm4.388,3.843a3.44,3.44,0,0,1,1.774,4.457,3.516,3.516,0,0,1-6.162.864,2.737,2.737,0,0,1-.659-2.115,3.221,3.221,0,0,1,2.024-3.229A3,3,0,0,1,332.371-441.67Zm-4.388,10.255,1.137.5-1.069.387a9.844,9.844,0,0,0-1.955,1.114l-.91.728-2.069-1.137-2.092-1.114,1.432-.8c2.933-1.614,2.706-1.546,3.615-.819A10.868,10.868,0,0,0,327.983-431.416Zm4.457,4.82a4.1,4.1,0,0,1,2.046,3.161,4.4,4.4,0,0,1-1.637,2.956,3.967,3.967,0,0,1-3.956.046,3.542,3.542,0,0,1-1.614-2.751,3.419,3.419,0,0,1,1.978-3.433A2.849,2.849,0,0,1,332.439-426.6Z" transform="translate(-229.438 -51.009)" fill="#ff6f00"/>
    <path id="Path_477" data-name="Path 477" d="M66-411.067v1.933H77.369V-413H66Z" transform="translate(-50.993 -76.496)" fill="#ff6f00"/>
    <path id="Path_478" data-name="Path 478" d="M66-378.067v1.933H77.369V-380H66Z" transform="translate(-50.993 -101.993)" fill="#ff6f00"/>
    <path id="Path_479" data-name="Path 479" d="M66-345.067v1.933H77.369V-347H66Z" transform="translate(-50.993 -127.489)" fill="#ff6f00"/>
    <path id="Path_480" data-name="Path 480" d="M66-312.067v1.933H77.369V-314H66Z" transform="translate(-50.993 -152.986)" fill="#ff6f00"/>
    <path id="Path_481" data-name="Path 481" d="M66-279.067v1.933H77.369V-281H66Z" transform="translate(-50.993 -178.482)" fill="#ff6f00"/>
    <path id="Path_482" data-name="Path 482" d="M66-246.067v1.933H77.369V-248H66Z" transform="translate(-50.993 -203.979)" fill="#ff6f00"/>
    <path id="Path_483" data-name="Path 483" d="M165-403.564v9.436h18.872V-413H165Zm15.007,0v5.571H168.865v-11.141h11.141Z" transform="translate(-127.483 -76.496)" fill="#ff6f00"/>
    <path id="Path_484" data-name="Path 484" d="M165-304.564v9.436h18.872V-314H165Zm15.007,0v5.571H168.865v-11.141h11.141Z" transform="translate(-127.483 -152.986)" fill="#ff6f00"/>
    <path id="Path_485" data-name="Path 485" d="M338.887-181.7c-.864.659-.887.91-.887,14.939v13.688l.659.659a2.111,2.111,0,0,0,1.251.659c.819,0,27.785-13.506,28.1-14.075a2.392,2.392,0,0,0-.136-2.251c-.523-.773-26.921-13.915-27.9-13.915A2.075,2.075,0,0,0,338.887-181.7ZM352.1-162.082c-5.321,2.66-9.732,4.843-9.823,4.843-.114.023-.182-4.388-.182-9.754v-9.777l9.823,4.911,9.845,4.911Z" transform="translate(-261.147 -254.972)" fill="#ff6f00"/>
    <path id="Path_486" data-name="Path 486" d="M36.638-172.45v9.55l-.887.455A5.352,5.352,0,0,0,33-157.557a5.561,5.561,0,0,0,3.092,5.161c.523.25.546.364.546,2.274v2h4.093l.023-2V-152.1l1.069-.682a5.782,5.782,0,0,0,2.319-6.367,7.188,7.188,0,0,0-2.751-3.433l-.659-.341V-182H36.638Zm3.047,13.688a1.617,1.617,0,0,1-1.091,2.91,1.4,1.4,0,0,1-1.251-.591,1.527,1.527,0,0,1,.091-2.251A1.494,1.494,0,0,1,39.685-158.762Z" transform="translate(-25.497 -254.972)" fill="#ff6f00"/>
    <path id="Path_487" data-name="Path 487" d="M102.626-176.2v5.8l-.887.455c-3.183,1.614-3.729,6.708-1,9.118a7.665,7.665,0,0,0,1.342.932l.546.25v11.528h4.093l.023-5.753v-5.73l1.069-.682a5.767,5.767,0,0,0-.409-9.777l-.682-.364V-182h-4.093Zm3.115,9.936c.682.773.8,1.273.409,1.978a1.643,1.643,0,0,1-2.774.341,1.177,1.177,0,0,1-.432-1.3A1.648,1.648,0,0,1,105.741-166.266Z" transform="translate(-76.477 -254.972)" fill="#ff6f00"/>
    <path id="Path_488" data-name="Path 488" d="M168.685-178.044v3.956l-.682.273a6.755,6.755,0,0,0-2.638,2.865,7.336,7.336,0,0,0,.114,4.525,6.717,6.717,0,0,0,2.592,2.751l.614.341v15.211h4.093v-7.731c0-6.867.045-7.731.364-7.731.614,0,2.706-2.3,3-3.32a6.052,6.052,0,0,0-.273-4.3,5.766,5.766,0,0,0-2.615-2.729c-.455-.136-.477-.3-.477-4.116V-182h-4.093Zm3.274,8.095a1.675,1.675,0,0,1-.182,2.433c-.819.7-1.387.659-2.206-.136-.75-.75-.819-1.273-.3-2.024A1.657,1.657,0,0,1,171.959-169.949Z" transform="translate(-127.53 -254.972)" fill="#ff6f00"/>
  </g>
</svg>
