<svg xmlns="http://www.w3.org/2000/svg" width="116.226" height="123.945" viewBox="0 0 116.226 123.945">
  <g id="interactive" transform="translate(-16.139 511.758)">
    <path id="Path_435" data-name="Path 435" d="M329.6-511.453a9.389,9.389,0,0,0-6.42,4.675L322.5-505.4v24.225l.678,1.381c1.187,2.4,3.367,3.924,6.735,4.651,1.6.363,3.077.412,11.022.339,8.7-.1,9.254-.121,10.78-.63a8.52,8.52,0,0,0,5.911-6.032c.339-1.284.388-3.125.315-12.476-.073-10.514-.1-11.022-.581-12.21-1.017-2.471-2.447-3.779-5.354-4.893l-1.647-.654-9.69-.048C332.965-511.792,330.688-511.72,329.6-511.453Zm20.422,4.191A6.535,6.535,0,0,1,353-505.2c.484.678.509.969.581,11.386.048,7.1,0,11-.194,11.6a4.759,4.759,0,0,1-3.343,2.786c-1.211.388-2.423.436-9.981.436-7.849,0-8.721-.048-10.029-.46a4.738,4.738,0,0,1-3.27-2.98c-.17-.581-.266-4.675-.266-10.974.024-10.49.1-11.241,1.09-12.355a7.909,7.909,0,0,1,3.537-1.7C332.723-507.771,348.954-507.6,350.02-507.262Z" transform="translate(-232.144)" fill="#ff6f00"/>
    <path id="Path_436" data-name="Path 436" d="M378.208-480.557c-1.744.775-2.81,2.544-3.149,5.16l-.145,1.163H373v3.392h1.938v11.87h4.118v-11.87h3.392v-3.392h-3.392v-.727a4.85,4.85,0,0,1,.339-1.575c.485-1.139,1.284-1.332,3.2-.727.581.17.654,0,.945-2.108.17-1.09.145-1.163-.484-1.405A8.707,8.707,0,0,0,378.208-480.557Z" transform="translate(-270.41 -23.289)" fill="#ff6f00"/>
    <path id="Path_437" data-name="Path 437" d="M56.63-488.491l-.63.484v20.834l.606.581.581.606H87.711l6.71,1.454c3.682.8,6.977,1.454,7.292,1.454a2.714,2.714,0,0,0,2.011-1.962,53.59,53.59,0,0,0-2.786-6.056l-2.786-5.523v-11.192l-.606-.581L96.965-489H77.124C57.405-489,57.284-489,56.63-488.491Zm37.4,8.5.024,4.918,1.768,3.464c1.139,2.229,1.623,3.416,1.381,3.319-.218-.048-2.156-.484-4.336-.969l-3.949-.848h-28.8v-14.777H94.034Z" transform="translate(-30.204 -17.245)" fill="#ff6f00"/>
    <path id="Path_438" data-name="Path 438" d="M92.432-451.7a2.049,2.049,0,0,0-.606,3.416l.7.7h11.749c11.386,0,11.749-.024,12.355-.485a2.029,2.029,0,0,0-.436-3.513c-.678-.291-2.762-.363-12.04-.339C97.98-451.914,92.7-451.817,92.432-451.7Z" transform="translate(-56.85 -45.344)" fill="#ff6f00"/>
    <path id="Path_439" data-name="Path 439" d="M49.342-340.856a2.473,2.473,0,0,0-.9,2.2A59.238,59.238,0,0,0,53-332.426l4.433,5.572-17.321.121-17.345.121-1.381.654a9.032,9.032,0,0,0-5.039,6.9c-.17,1.09-.242,10.368-.194,27.689l.073,26.042.7,1.526a10.182,10.182,0,0,0,4.918,4.7l1.405.557,51.842.073c48.111.048,51.915.024,52.908-.339a7.218,7.218,0,0,0,3.682-3.561l.581-1.26.073-28.8c.073-31.2.1-30.16-1.211-32.123a5.379,5.379,0,0,0-1.768-1.429l-1.187-.63-16.546-.121L95.1-326.854l2.81-3.513c5.959-7.486,6.129-7.728,6.129-8.7a1.872,1.872,0,0,0-2.132-1.962c-1.163,0-.606-.606-7.873,8.551l-4.554,5.741H76.232l-13.251-.024L57.894-333.2c-6.42-8.115-6.129-7.825-7.316-7.8A4.455,4.455,0,0,0,49.342-340.856Zm77.5,18.871a2.472,2.472,0,0,1,.945.824c.17.315.218,9.5.194,28.8L127.9-263.99l-.678.654-.678.678-51.164-.073L24.221-262.8l-1.066-.533a5.946,5.946,0,0,1-1.817-1.454l-.751-.945-.073-26.527-.048-26.551.509-1.066a5.2,5.2,0,0,1,2.81-2.519c.412-.121,20.567-.17,51.527-.073C119.111-322.372,126.258-322.3,126.839-321.985Z" transform="translate(0 -129.365)" fill="#ff6f00"/>
    <path id="Path_440" data-name="Path 440" d="M80.081-244.5a2.284,2.284,0,0,0-.945.8c-.1.266-.242,11.047-.315,23.959L78.7-196.222l.63.7.606.727,41.643.073,41.643.048.557-.581.557-.581.145-23.62.121-23.62-.751-.751-.727-.751H126.3c-20.228,0-38.736-.048-41.134-.121C81.7-244.818,80.686-244.769,80.081-244.5Zm69.744,4.215,10.344.145v41.352H137.107c-12.694,0-30.039-.073-38.518-.17L83.133-199.1v-41.352h28.174C126.787-240.457,144.108-240.384,149.825-240.288Z" transform="translate(-47.405 -202.317)" fill="#ff6f00"/>
    <path id="Path_441" data-name="Path 441" d="M49.945-184.808c-.9.678-.945,1.163-.945,10.2,0,5.959.1,9.036.266,9.424a2.108,2.108,0,0,0,3.295.557l.678-.581.073-8.939c.048-4.893,0-9.157-.073-9.472A2.232,2.232,0,0,0,49.945-184.808Z" transform="translate(-24.9 -247.477)" fill="#ff6f00"/>
    <path id="Path_442" data-name="Path 442" d="M447.454-175.538a3.843,3.843,0,0,0-.9.63c-.557.485-.557.533-.557,7.825v7.34l.63.485a2.174,2.174,0,0,0,2.883-.1l.606-.581v-7.243c0-7.195,0-7.243-.533-7.752A2.357,2.357,0,0,0,447.454-175.538Z" transform="translate(-325.726 -254.713)" fill="#ff6f00"/>
  </g>
</svg>
