<svg xmlns="http://www.w3.org/2000/svg" width="121.905" height="111.192" viewBox="0 0 121.905 111.192">
  <g id="logotype" transform="translate(0.143 489.567)">
    <path id="Path_443" data-name="Path 443" d="M57.381-489.432a23.066,23.066,0,0,0-16,10.593c-3.523,5.737-39.4,68.3-39.969,69.749a23.329,23.329,0,0,0-.452,15.473,22.919,22.919,0,0,0,15.759,14.688,27,27,0,0,0,10.879,0,25.879,25.879,0,0,0,7.5-3.357,24.731,24.731,0,0,0,5.57-5.57c.5-.762,5.19-8.784,10.427-17.854,5.237-9.046,9.617-16.473,9.736-16.473s4.666,7.689,10.093,17.068c5.475,9.522,10.4,17.759,11.093,18.592a22.754,22.754,0,0,0,12.045,7.594,27,27,0,0,0,10.879,0,22.735,22.735,0,0,0,16.473-17.5,28.083,28.083,0,0,0-.024-8.927,23.848,23.848,0,0,0-1.143-3.737c-.69-1.738-38.088-66.845-40.588-70.678a22.492,22.492,0,0,0-13.593-9.308A34.279,34.279,0,0,0,57.381-489.432Zm6.166,8.213a15.444,15.444,0,0,1,6.5,3.285c2.809,2.595,5.475,7,31.3,51.824,11.45,19.854,11.474,19.9,11.974,21.829a17.681,17.681,0,0,1-.024,7.07,14.767,14.767,0,0,1-13.9,10.855A14.963,14.963,0,0,1,87.756-392.4c-1.119-1.619-38.826-67.035-39.683-68.821a13.221,13.221,0,0,1,.286-12.5,14.769,14.769,0,0,1,9.736-7.5A11.718,11.718,0,0,1,63.546-481.219ZM45.169-449.677c2.309,4,5.689,9.879,7.546,13.093,2.5,4.309,3.333,5.927,3.19,6.213-.1.238-2.976,5.237-6.38,11.117l-6.189,10.689-.619-1.5a22.937,22.937,0,0,0-7.57-9.117,25.928,25.928,0,0,0-7.546-3.4,20.124,20.124,0,0,0-5.523-.548,14.668,14.668,0,0,1-3.309-.19c.024-.119,4.761-8.379,10.522-18.354l10.474-18.14.619,1.452C40.717-457.581,42.883-453.677,45.169-449.677ZM25.7-414.684a13.424,13.424,0,0,1,6.594,3.809,13.4,13.4,0,0,1,4.261,10.022,13.432,13.432,0,0,1-4.309,10.236,13.859,13.859,0,0,1-19.973,0,13.733,13.733,0,0,1-4.309-10.236A13.564,13.564,0,0,1,12.246-410.9,13.834,13.834,0,0,1,25.7-414.684Z" transform="translate(0)" fill="#ff6f00"/>
  </g>
</svg>
