<svg xmlns="http://www.w3.org/2000/svg" width="126" height="140.002" viewBox="0 0 126 140.002">
  <g id="social-media" transform="translate(-40 496.008)">
    <path id="Path_444" data-name="Path 444" d="M43.938-495.452a7.529,7.529,0,0,0-3.471,3.588c-.408.962-.467,7.992-.467,65.858s.058,64.9.467,65.858a7.529,7.529,0,0,0,3.471,3.587c1.138.525,3.267.554,59.063.554s57.925-.029,59.062-.554a7.529,7.529,0,0,0,3.471-3.587c.408-.963.467-7.992.467-65.917,0-62.533-.029-64.867-.554-66a8.735,8.735,0,0,0-1.517-2.1c-2.1-1.983,2.888-1.837-60.987-1.837C47.233-496.006,45.075-495.977,43.938-495.452Zm115.646,4.433c1.4.5,1.75,1.633,1.75,5.658v3.354H44.667v-3.325c0-3.908.321-5.046,1.575-5.6.758-.321,10.383-.379,56.642-.408C143.746-491.339,158.883-491.252,159.583-491.018Zm1.75,70.671c0,41.737-.087,57.225-.321,57.925-.671,1.867,3.238,1.75-58.012,1.75s-57.342.117-58.012-1.75c-.233-.7-.321-16.187-.321-57.925v-56.992H161.333Z" fill="#ff6f00"/>
    <path id="Path_445" data-name="Path 445" d="M72.583-471.417a2.387,2.387,0,0,0-.583,1.75,2.07,2.07,0,0,0,2.333,2.333,2.07,2.07,0,0,0,2.333-2.333A2.07,2.07,0,0,0,74.333-472,2.387,2.387,0,0,0,72.583-471.417Z" transform="translate(-22.667 -17.006)" fill="#ff6f00"/>
    <path id="Path_446" data-name="Path 446" d="M96.583-471.417a2.387,2.387,0,0,0-.583,1.75,2.07,2.07,0,0,0,2.333,2.333,2.07,2.07,0,0,0,2.333-2.333A2.07,2.07,0,0,0,98.333-472,2.387,2.387,0,0,0,96.583-471.417Z" transform="translate(-39.667 -17.006)" fill="#ff6f00"/>
    <path id="Path_447" data-name="Path 447" d="M120.583-471.417a2.387,2.387,0,0,0-.583,1.75,2.07,2.07,0,0,0,2.333,2.333,2.07,2.07,0,0,0,2.333-2.333,2.387,2.387,0,0,0-.583-1.75,2.387,2.387,0,0,0-1.75-.583A2.387,2.387,0,0,0,120.583-471.417Z" transform="translate(-56.667 -17.006)" fill="#ff6f00"/>
    <path id="Path_448" data-name="Path 448" d="M88.583-399.417c-.583.583-.583.963-.583,28.583s0,28,.583,28.583.963.583,48.417.583,47.833,0,48.417-.583.583-.963.583-28.583,0-28-.583-28.583S184.454-400,137-400,89.167-400,88.583-399.417Zm92.75,28.583v24.5l-6.037-.058-6.038-.088-2.275-8.312c-1.254-4.579-2.567-8.867-2.888-9.537a14.269,14.269,0,0,0-8.342-7.088A17.1,17.1,0,0,0,150.1-372h-3.762v-8.458l1.167-2.333a7.326,7.326,0,0,0,1.167-4.083,5.823,5.823,0,0,0-3.412-5.658c-.758-.379-1.9-.467-5.6-.467-5.687,0-7.117.408-9.363,2.625-2.392,2.421-2.625,3.442-2.625,11.521V-372H123.9a17.1,17.1,0,0,0-5.658.583,14.269,14.269,0,0,0-8.342,7.088c-.321.671-1.633,4.958-2.888,9.537l-2.275,8.313-6.038.088-6.037.058v-49h88.667ZM142.95-388.042c.963.35.992,1.254.117,3.063l-.642,1.313h-4.4c-3.558,0-4.521.088-5.046.467l-.671.467.175-1.108a4.949,4.949,0,0,1,3.675-4.2A22.044,22.044,0,0,1,142.95-388.042Zm-1.342,11.929c-.117,2.158-.292,3.121-.7,3.85a4.476,4.476,0,0,1-3.879,2.3,4.525,4.525,0,0,1-4.521-4.171c-.2-1.167-.146-1.225,1.633-3.033L135.95-379h5.8Zm-13.942,10.471a7.954,7.954,0,0,0,4.783,7.087,9.694,9.694,0,0,0,7.117-.2A7.719,7.719,0,0,0,144-365.7v-1.721l4.608.175c3.5.088,4.929.263,6.008.671a10.532,10.532,0,0,1,4.667,4c.817,1.4,2.6,7.525,2.275,7.817a43.386,43.386,0,0,1-5.658,2.3,8.911,8.911,0,0,1-.233-2.771V-358H151v11.667H137.729c-7.292,0-13.271-.117-13.271-.233s.729-2.042,1.633-4.258a41.718,41.718,0,0,0,1.517-4.112c-.554-.437-4.4-1.633-4.579-1.429a14.119,14.119,0,0,0-1.05,2.333l-.787,2.1-4.433-1.487c-2.421-.788-4.433-1.487-4.463-1.487-.029-.029.321-1.488.817-3.267.962-3.471,1.75-5.017,3.237-6.446,2.071-1.954,4.229-2.625,8.779-2.683l2.537-.029Zm-8.6,18.754c0,.321-.875.438-4.637.5-4.317.058-4.608.029-4.4-.437.088-.292.321-1.138.5-1.867l.321-1.371,4.113,1.4C117.662-347.763,119.063-347.15,119.063-346.888Zm44.45-1.663a16.91,16.91,0,0,0,.5,1.75c.146.408-.262.467-4.113.467-3.033,0-4.258-.087-4.171-.321a51.181,51.181,0,0,1,7.262-3.179C163.1-349.833,163.337-349.25,163.512-348.55Z" transform="translate(-34 -68.006)" fill="#ff6f00"/>
    <path id="Path_449" data-name="Path 449" d="M91.85-183.294A6.825,6.825,0,0,0,88-176.674c0,2.888.758,4.054,5.921,9.188,4.4,4.346,4.492,4.433,5.746,4.433s1.342-.088,5.746-4.463c5.425-5.367,6.038-6.387,5.863-9.625a6.716,6.716,0,0,0-3.267-5.892,8.411,8.411,0,0,0-7-.5c-1.342.612-1.342.612-2.6.058A8.17,8.17,0,0,0,91.85-183.294Zm5.512,5.221a2.913,2.913,0,0,0,2.3,1.021,2.913,2.913,0,0,0,2.3-1.021c1.954-1.779,4.4-1.079,4.4,1.283,0,.963-.321,1.371-3.354,4.4l-3.354,3.354-3.354-3.354c-2.975-2.975-3.354-3.442-3.354-4.346C92.958-179.153,95.379-179.882,97.362-178.074Z" transform="translate(-34 -220.953)" fill="#ff6f00"/>
    <path id="Path_450" data-name="Path 450" d="M176.583-143.417a2.387,2.387,0,0,0-.583,1.75,2.387,2.387,0,0,0,.583,1.75,2.387,2.387,0,0,0,1.75.583,2.387,2.387,0,0,0,1.75-.583,2.387,2.387,0,0,0,.583-1.75,2.387,2.387,0,0,0-.583-1.75,2.387,2.387,0,0,0-1.75-.583A2.387,2.387,0,0,0,176.583-143.417Z" transform="translate(-96.333 -249.339)" fill="#ff6f00"/>
    <path id="Path_451" data-name="Path 451" d="M200.583-143.417a2.387,2.387,0,0,0-.583,1.75,2.387,2.387,0,0,0,.583,1.75,2.387,2.387,0,0,0,1.75.583,2.387,2.387,0,0,0,1.75-.583,2.387,2.387,0,0,0,.583-1.75,2.387,2.387,0,0,0-.583-1.75,2.387,2.387,0,0,0-1.75-.583A2.387,2.387,0,0,0,200.583-143.417Z" transform="translate(-113.333 -249.339)" fill="#ff6f00"/>
    <path id="Path_452" data-name="Path 452" d="M224.583-143.417a2.387,2.387,0,0,0-.583,1.75,2.387,2.387,0,0,0,.583,1.75,2.387,2.387,0,0,0,1.75.583,2.387,2.387,0,0,0,1.75-.583,2.387,2.387,0,0,0,.583-1.75,2.387,2.387,0,0,0-.583-1.75,2.387,2.387,0,0,0-1.75-.583A2.387,2.387,0,0,0,224.583-143.417Z" transform="translate(-130.333 -249.339)" fill="#ff6f00"/>
    <path id="Path_453" data-name="Path 453" d="M107.938-95.405A6.754,6.754,0,0,0,104-88.9a6.629,6.629,0,0,0,7,6.942,6.613,6.613,0,0,0,7-7,6.763,6.763,0,0,0-4.142-6.533A9.146,9.146,0,0,0,107.938-95.405Zm4.521,4.988a2.333,2.333,0,0,1,.583,1.458,2.333,2.333,0,0,1-.583,1.458,2.333,2.333,0,0,1-1.458.583,2.333,2.333,0,0,1-1.458-.583,2.333,2.333,0,0,1-.583-1.458,2.333,2.333,0,0,1,.583-1.458A2.333,2.333,0,0,1,111-91,2.333,2.333,0,0,1,112.458-90.418Z" transform="translate(-45.333 -283.38)" fill="#ff6f00"/>
    <path id="Path_454" data-name="Path 454" d="M176-77.667v2.333h4.667V-80H176Z" transform="translate(-96.333 -294.672)" fill="#ff6f00"/>
    <path id="Path_455" data-name="Path 455" d="M208-77.667v2.333h23.333V-80H208Z" transform="translate(-119 -294.672)" fill="#ff6f00"/>
  </g>
</svg>
