<svg xmlns="http://www.w3.org/2000/svg" width="114.517" height="116.335" viewBox="0 0 114.517 116.335">
  <g id="web-design" transform="translate(-4 512)">
    <path id="Path_296" data-name="Path 296" d="M22.518-511.568a5.236,5.236,0,0,0-2.545,2.636c-.364.8-.409,1.75-.477,7.316l-.068,6.385-5.271.091c-4.794.068-5.362.114-6.317.545a7.169,7.169,0,0,0-3.295,3.363L4-490.074v69.983l.545,1.159a7.169,7.169,0,0,0,3.295,3.363c.977.432,1.5.477,7.248.545,4.385.068,6.408,0,6.862-.182a1.866,1.866,0,0,0,.5-3.022c-.318-.341-.909-.386-6.044-.386a62.161,62.161,0,0,1-6.521-.227,4.028,4.028,0,0,1-1.477-.932l-.659-.682-.068-7.725-.068-7.7H114.9l-.068,7.7-.068,7.725-.659.682a4.028,4.028,0,0,1-1.477.932c-.523.136-15.723.227-42.444.227-41.353,0-41.649,0-42.1.454a2.058,2.058,0,0,0,.023,2.636c.454.409,1,.432,9.657.5l9.18.068v8.816l-.863.136a9.327,9.327,0,0,0-4.794,2.249,10.044,10.044,0,0,0-2.749,6.18,2.458,2.458,0,0,0,.477,1.318l.454.591h43.58l.454-.591c.568-.727.591-1.568.136-3.34a8.586,8.586,0,0,0-7.2-6.408l-.863-.136v-8.816l19.041-.068c18.836-.068,19.018-.068,20.063-.545a7.17,7.17,0,0,0,3.295-3.363l.545-1.159v-69.983l-.545-1.159a6.561,6.561,0,0,0-5.09-3.84,2.2,2.2,0,0,0-2.522.932c-.613,1.341.091,2.454,1.7,2.7a3.215,3.215,0,0,1,1.863.909l.841.75.068,25.13.045,25.13h-12.27v-52.033h1.8c1.681,0,1.84-.045,2.272-.591a1.613,1.613,0,0,0,.227-1.977c-.364-.773-1.113-1.068-2.817-1.068h-1.454l-.068-6.43c-.068-5.567-.114-6.521-.477-7.316a5.236,5.236,0,0,0-2.545-2.636c-.863-.409-2.386-.432-38.513-.432S23.382-511.977,22.518-511.568Zm75.777,3.658c.432.432.454.75.454,10.793v10.338H69.029c-29.606,0-29.72,0-30.22.454a1.886,1.886,0,0,0,.091,2.7l.613.477H98.749v43.626H23.313v-43.626h4.2c4.181,0,4.226,0,4.772-.568a1.8,1.8,0,0,0,.068-2.545c-.477-.5-.591-.523-4.772-.523H23.313v-10.338c0-10.043.023-10.361.454-10.793.454-.454.75-.454,37.264-.454S97.841-508.365,98.295-507.91ZM19.451-465.534v26.016H7.635L7.681-464.6l.068-25.107.682-.7a3.424,3.424,0,0,1,1.363-.886,39.508,39.508,0,0,1,5.181-.227l4.476-.023Zm52.487,54.986v4.431H50.579v-8.861H71.938Zm4.294,8.316A5.262,5.262,0,0,1,79.5-400l.409.7H42.6l.409-.7a5.089,5.089,0,0,1,2.977-2.159C47.4-402.55,74.505-402.618,76.232-402.232Z" fill="#ff6f00"/>
    <path id="Path_297" data-name="Path 297" d="M113.184-480.47a61.181,61.181,0,0,0-3.408,5.521c-3.09,5.385-3.363,6.18-2.386,7.066.432.409.954.432,6.657.5,4.635.045,6.294-.023,6.726-.25a1.941,1.941,0,0,0,1.068-2c-.2-.773-6-10.7-6.453-11.065A1.87,1.87,0,0,0,113.184-480.47Zm2.658,7.68.863,1.591h-4.772l1.182-2.045C114.456-475.608,114.3-475.63,115.842-472.79Z" transform="translate(-79.509 -23.986)" fill="#ff6f00"/>
    <path id="Path_298" data-name="Path 298" d="M203.227-471.556a2.156,2.156,0,0,0-1.227,1.75,2.253,2.253,0,0,0,.545,1.136l.545.636h31.22l.545-.636a1.621,1.621,0,0,0,0-2.363l-.545-.636L219-471.715C210.589-471.738,203.477-471.669,203.227-471.556Z" transform="translate(-153.011 -31.128)" fill="#ff6f00"/>
    <path id="Path_299" data-name="Path 299" d="M202.669-438.409a1.275,1.275,0,0,0-.432,1.409c.25,1.636.227,1.636,8.316,1.636,6.953,0,7.225-.023,7.816-.477a1.814,1.814,0,0,0,.068-2.658c-.523-.5-.636-.5-7.862-.5H203.26Z" transform="translate(-153.158 -56.413)" fill="#ff6f00"/>
    <path id="Path_300" data-name="Path 300" d="M107.454-363.546c-.454.454-.454.75-.454,17.223v16.791l.523.477.523.5h33.287l.545-.568.568-.545v-33.355l-.523-.477-.523-.5H124.655C108.2-364,107.909-364,107.454-363.546ZM138.81-351.5v8.861h-1.318a8.758,8.758,0,0,0-5,1.568c-2.227,1.454-2.795,1.681-4.135,1.7-1.636.023-3.09-.7-5.908-2.931a24.108,24.108,0,0,0-3.522-2.386,9.752,9.752,0,0,0-7.43-.545l-.863.3v-15.428H138.81Zm-21.7,10.088a22.858,22.858,0,0,1,3.158,2.113c2.658,2.113,4.044,2.931,5.7,3.363,3,.773,5.067.273,8.884-2.136a4.573,4.573,0,0,1,3.363-.841l.591.136v6.589H110.635V-340.8l.727-.386A6.576,6.576,0,0,1,117.111-341.415Z" transform="translate(-79.597 -114.372)" fill="#ff6f00"/>
    <path id="Path_301" data-name="Path 301" d="M184.167-331.409a5.42,5.42,0,0,0-2.318,7.316,5.009,5.009,0,0,0,4.385,2.727,4.161,4.161,0,0,0,2.795-.523,4.95,4.95,0,0,0,2.84-3.613,5.332,5.332,0,0,0-5.249-6.5A5.014,5.014,0,0,0,184.167-331.409Zm3.476,3.522a1.681,1.681,0,0,1-1,2.931,1.626,1.626,0,0,1-1-2.908A1.316,1.316,0,0,1,187.643-327.887Z" transform="translate(-137.585 -140.93)" fill="#ff6f00"/>
    <path id="Path_302" data-name="Path 302" d="M282.134-357.705a2.024,2.024,0,0,0-.773,2c.318,1.386-.159,1.341,14.269,1.341,8.134,0,13.292-.091,13.565-.227a2.048,2.048,0,0,0,.682-2.136c-.5-1.318-.068-1.272-14.315-1.272C285.656-357.978,282.407-357.91,282.134-357.705Z" transform="translate(-214.309 -119.008)" fill="#ff6f00"/>
    <path id="Path_303" data-name="Path 303" d="M282.655-324.784a1.927,1.927,0,0,0-1.363,1.591,1.414,1.414,0,0,0,.432,1.341l.568.659,13.042.045c10.2.045,13.133,0,13.588-.227a1.731,1.731,0,0,0-.023-3.158c-.7-.386-1.8-.409-13.269-.386C288.767-324.9,282.9-324.83,282.655-324.784Z" transform="translate(-214.261 -144.567)" fill="#ff6f00"/>
    <path id="Path_304" data-name="Path 304" d="M282.134-290.736a2.024,2.024,0,0,0-.773,2c.318,1.386-.159,1.341,14.315,1.341,10.452-.023,13.269-.068,13.565-.318a1.878,1.878,0,0,0-.182-3.067C308.219-291.145,282.634-291.122,282.134-290.736Z" transform="translate(-214.309 -170.754)" fill="#ff6f00"/>
    <path id="Path_305" data-name="Path 305" d="M282.655-257.561a1.927,1.927,0,0,0-1.363,1.591,1.414,1.414,0,0,0,.432,1.341l.568.659h13.315c13.269,0,13.315,0,13.792-.477a2.122,2.122,0,0,0,0-2.681c-.477-.477-.545-.477-13.383-.5C288.926-257.652,282.9-257.629,282.655-257.561Z" transform="translate(-214.261 -196.567)" fill="#ff6f00"/>
    <path id="Path_306" data-name="Path 306" d="M282.206-223.773a2.136,2.136,0,0,0-.659.909,1.885,1.885,0,0,0,.7,2.272,53.607,53.607,0,0,0,6.862.227c6.021,0,6.5-.023,7-.432a1.989,1.989,0,0,0,0-2.772c-.5-.409-.977-.432-7.044-.432A59.231,59.231,0,0,0,282.206-223.773Z" transform="translate(-214.381 -222.562)" fill="#ff6f00"/>
    <path id="Path_307" data-name="Path 307" d="M240.567-161.685a5.589,5.589,0,0,0-2.408,2.045c-.591.863-.659,1.136-.659,2.886,0,1.863.045,2,.8,3.045a5.318,5.318,0,0,0,9.089-.659,5.471,5.471,0,0,0-2.658-7.316A7.6,7.6,0,0,0,240.567-161.685Zm3.113,3.84a1.539,1.539,0,0,1-1,2.681,1.816,1.816,0,0,1-1.659-1.568,1.811,1.811,0,0,1,1.568-1.613A1.973,1.973,0,0,1,243.68-157.845Z" transform="translate(-180.445 -270.493)" fill="#ff6f00"/>
  </g>
</svg>
