<svg xmlns="http://www.w3.org/2000/svg" width="116.003" height="116.117" viewBox="0 0 116.003 116.117">
  <g id="app-development" transform="translate(-0.5 512)">
    <path id="Path_273" data-name="Path 273" d="M6.357-511.569a9.126,9.126,0,0,0-5.244,4.79L.5-505.53v81.5l.658,1.362a10.245,10.245,0,0,0,4.336,4.336l1.362.658,14.6.068c8.014.023,14.574.136,14.574.227a7.4,7.4,0,0,1-.2.953c-.136.431-.341,1.226-.454,1.725-.2.726-.386.976-.817,1.09a6.254,6.254,0,0,0-2.86,2.747c-.341.726-.431,1.5-.431,3.9,0,2.724.045,3.065.454,3.473.431.431.749.454,9.989.454h9.535v-3.632H34.892v-.772a5.749,5.749,0,0,1,.25-1.5c.454-1.294.931-1.362,8.944-1.362h7.151v-3.632H45.2c-5.63,0-6.016-.023-5.9-.409.068-.2.227-.84.363-1.408s.3-1.2.363-1.43c.114-.363.59-.386,5.675-.386h5.539v-3.609l-21.385-.068c-21.226-.068-21.407-.068-22.429-.545A5.37,5.37,0,0,1,4.632-424.6c-.386-.817-.477-1.634-.568-4.268l-.114-3.224H51.237v-3.632H4.019l.045-34.12.068-34.1.477-1.022C5.7-507.3,7.2-508.118,10.625-508.3l2.474-.136V-512H10.33A11.972,11.972,0,0,0,6.357-511.569Z" fill="#ff6f00"/>
    <path id="Path_274" data-name="Path 274" d="M72-510.184v1.816h3.859V-512H72Z" transform="translate(-55.269)" fill="#ff6f00"/>
    <path id="Path_275" data-name="Path 275" d="M104-510.184v1.816l42.406.045,42.383.068.908.477a6,6,0,0,1,2.7,2.815l.477,1.022v39.046c0,32.486-.045,39.205-.318,39.931a6.75,6.75,0,0,1-2.565,3l-.636.318-.045-29.217-.068-29.239-.658-1.362a10.245,10.245,0,0,0-4.336-4.336l-1.362-.658H141.344l-1.362.658a10.245,10.245,0,0,0-4.336,4.336l-.658,1.362v77.865l.658,1.362a10.245,10.245,0,0,0,4.336,4.336l1.362.658h41.543l1.362-.658a10.245,10.245,0,0,0,4.336-4.336l.658-1.362.114-7.7.113-7.7.953-.272a9.407,9.407,0,0,0,5.471-4.881l.613-1.249v-81.5l-.658-1.362a10.245,10.245,0,0,0-4.336-4.336l-1.362-.658-43.064-.068L104-512Zm78.433,27.832c1.725.931,3.042,2.747,3.065,4.222v.636h-5.789c-6.629,0-6.538-.023-6.81,1.975-.227,1.725-.726,2.928-1.385,3.224-.7.318-17.934.363-18.774.045-.636-.25-1.18-1.521-1.408-3.269-.272-2-.182-1.975-6.81-1.975h-5.789v-.636c.023-2,2.111-4.2,4.427-4.608.5-.091,9.33-.136,19.637-.113C181.5-482.829,181.525-482.829,182.433-482.352Zm-34.37,9.966a7.221,7.221,0,0,0,1.2,2.316c1.476,1.7,1.09,1.657,12.849,1.657s11.373.045,12.849-1.657a7.221,7.221,0,0,0,1.2-2.316l.431-1.362,4.563-.068,4.563-.045V-410.3H138.506v-63.564l4.563.045,4.563.068Zm37.571,67.241a5.886,5.886,0,0,1-1.884,4.177c-1.68,1.521-.726,1.453-21.748,1.453-18.91,0-19.069,0-20.091-.477-2.043-.953-3.042-2.52-3.314-5.153l-.159-1.521h47.355Z" transform="translate(-80.004)" fill="#ff6f00"/>
    <path id="Path_276" data-name="Path 276" d="M328-366.184v1.816h14.529V-368H328Z" transform="translate(-253.153 -111.31)" fill="#ff6f00"/>
    <path id="Path_277" data-name="Path 277" d="M288.164-287.449a20.274,20.274,0,0,0-15.233,14.438,18.038,18.038,0,0,0-.431,5.335c.023,3.609.068,4,.658,5.789a20.075,20.075,0,0,0,15.028,13.734,26.353,26.353,0,0,0,8.445-.023,20.177,20.177,0,0,0,15.346-15.346,26.047,26.047,0,0,0,0-8.6,20.022,20.022,0,0,0-13.712-14.847,14.729,14.729,0,0,0-5.335-.7A21.392,21.392,0,0,0,288.164-287.449Zm9.466,4.381a16.63,16.63,0,0,1,10.125,10.261c.545,1.566.613,2.02.613,5.017s-.068,3.451-.613,5.017a16.127,16.127,0,0,1-15.278,11.1,15.329,15.329,0,0,1-8.717-2.452,16.236,16.236,0,0,1-4.608-23.019,20.1,20.1,0,0,1,4.926-4.54A16.288,16.288,0,0,1,297.63-283.068Z" transform="translate(-210.253 -173.382)" fill="#ff6f00"/>
    <path id="Path_278" data-name="Path 278" d="M311.845-251.2l-4.926,4.926-1.362-1.294c-1.2-1.158-1.453-1.294-2.316-1.294-.953,0-1.067.091-4.109,3.133C296.045-242.646,296-242.6,296-241.6v1l4.949,4.949L305.9-230.7h2.02l8.558-8.581,8.581-8.558v-1.022c0-1-.045-1.044-3.133-4.132C317.5-257.424,318.225-257.56,311.845-251.2Zm7.31,1.09,1.249,1.249-6.765,6.765-6.742,6.742-3.11-3.133-3.133-3.11,1.294-1.294,1.294-1.294L304.6-242.9c1.2,1.158,1.453,1.294,2.316,1.294.976,0,1.022-.045,5.88-4.881,2.679-2.679,4.926-4.881,4.994-4.881A11.2,11.2,0,0,1,319.155-250.114Z" transform="translate(-228.418 -197.755)" fill="#ff6f00"/>
    <path id="Path_279" data-name="Path 279" d="M328-38.184v1.816h14.529V-40H328Z" transform="translate(-253.153 -364.85)" fill="#ff6f00"/>
    <path id="Path_280" data-name="Path 280" d="M48.812-479.759c-.341.272-.454.681-.545,2.179l-.114,1.839-1.43.59-1.43.568-1.226-1.158c-1.93-1.839-2.066-1.793-5.834,1.975s-3.814,3.9-1.975,5.834l1.158,1.226-.568,1.43-.59,1.43-1.839.114c-1.5.091-1.907.2-2.179.545-.454.658-.454,9.149,0,9.807.272.341.681.454,2.179.545l1.839.113.59,1.43.568,1.43-1.158,1.226c-1.839,1.93-1.793,2.066,1.975,5.834s3.9,3.814,5.834,1.975l1.226-1.158,1.43.568,1.43.59.114,1.839c.091,1.5.2,1.907.545,2.179.658.454,9.149.454,9.807,0,.341-.272.454-.681.545-2.179l.114-1.839,1.43-.59,1.43-.568,1.226,1.158c1.93,1.839,2.066,1.793,5.834-1.975s3.814-3.9,1.975-5.834l-1.158-1.226.568-1.43.59-1.43,1.839-.113c1.5-.091,1.907-.2,2.179-.545.454-.658.454-9.149,0-9.807-.272-.341-.681-.454-2.179-.545l-1.839-.114-.59-1.43-.568-1.43,1.158-1.226c1.839-1.93,1.793-2.066-1.975-5.834s-3.9-3.814-5.834-1.975l-1.226,1.158-1.43-.568-1.43-.59-.114-1.839c-.091-1.5-.2-1.907-.545-2.179C57.961-480.214,49.471-480.214,48.812-479.759Zm6.72,4.813a6.437,6.437,0,0,0,.227,1.907,2.921,2.921,0,0,0,1.544.817,24.721,24.721,0,0,1,3.155,1.271c2.157,1.044,2.452,1.022,3.882-.341l.953-.931,1.18,1.18,1.18,1.18-.931.953c-1.362,1.43-1.385,1.725-.341,3.882a24.725,24.725,0,0,1,1.271,3.155,2.921,2.921,0,0,0,.817,1.544,6.436,6.436,0,0,0,1.907.227h1.5v3.632h-1.5a6.438,6.438,0,0,0-1.907.227,2.921,2.921,0,0,0-.817,1.544,24.725,24.725,0,0,1-1.271,3.156c-1.044,2.157-1.022,2.452.341,3.882l.931.953-1.18,1.18-1.18,1.18-.953-.931c-1.43-1.362-1.725-1.385-3.882-.341a24.722,24.722,0,0,1-3.155,1.271,2.921,2.921,0,0,0-1.544.817,6.437,6.437,0,0,0-.227,1.907v1.5H51.9v-1.5a6.437,6.437,0,0,0-.227-1.907,2.921,2.921,0,0,0-1.544-.817,24.722,24.722,0,0,1-3.155-1.271c-2.157-1.044-2.452-1.022-3.882.341l-.953.931-1.18-1.18-1.18-1.18.931-.953c1.362-1.43,1.385-1.725.341-3.882a24.724,24.724,0,0,1-1.271-3.156,2.921,2.921,0,0,0-.817-1.544,6.438,6.438,0,0,0-1.907-.227h-1.5V-460.1h1.5a6.436,6.436,0,0,0,1.907-.227,2.921,2.921,0,0,0,.817-1.544,24.724,24.724,0,0,1,1.271-3.155c1.044-2.157,1.022-2.452-.341-3.882l-.931-.953,1.18-1.18,1.18-1.18.953.931c1.43,1.362,1.7,1.385,3.927.318a22.975,22.975,0,0,1,2.928-1.18c1.634-.409,1.952-.863,1.952-2.7v-1.589h3.632Z" transform="translate(-24.272 -24.658)" fill="#ff6f00"/>
    <path id="Path_281" data-name="Path 281" d="M94.584-423.489a9.629,9.629,0,0,0-5.471,4.9c-.568,1.135-.613,1.476-.613,3.859,0,2.429.045,2.7.658,3.973a10.245,10.245,0,0,0,4.336,4.336c1.271.613,1.544.658,3.973.658s2.7-.045,3.973-.658a10.245,10.245,0,0,0,4.336-4.336c.613-1.271.658-1.544.658-3.973s-.045-2.7-.658-3.973a10.069,10.069,0,0,0-4.336-4.313,6.59,6.59,0,0,0-3.632-.726A10.767,10.767,0,0,0,94.584-423.489Zm5.108,3.973a5.3,5.3,0,0,1,1.385,8.581,5.234,5.234,0,0,1-8.831-3.746,5.244,5.244,0,0,1,3.065-4.835A5.848,5.848,0,0,1,99.692-419.517Z" transform="translate(-68.023 -68.216)" fill="#ff6f00"/>
    <path id="Path_282" data-name="Path 282" d="M336-478.184v1.816h23.609V-480H336Z" transform="translate(-259.337 -24.736)" fill="#ff6f00"/>
    <path id="Path_283" data-name="Path 283" d="M456-478.184v1.816h3.632V-480H456Z" transform="translate(-352.096 -24.736)" fill="#ff6f00"/>
    <path id="Path_284" data-name="Path 284" d="M136.889-295.682c-.341.272-.454.681-.545,2.179l-.114,1.839-1.43.59-1.43.568-1.226-1.158c-1.93-1.839-2.066-1.793-5.834,1.975s-3.814,3.9-1.975,5.834l1.158,1.226-.568,1.43-.59,1.43-1.839.113c-2.565.159-2.5.045-2.5,5.04v4.041h3.632v-5.448h1.5a6.438,6.438,0,0,0,1.907-.227,2.921,2.921,0,0,0,.817-1.544,24.725,24.725,0,0,1,1.271-3.155c1.044-2.157,1.022-2.452-.34-3.882l-.931-.953,1.18-1.18,1.18-1.18.953.931c1.43,1.362,1.7,1.385,3.927.318a22.971,22.971,0,0,1,2.928-1.18c1.634-.409,1.952-.863,1.952-2.7v-1.589h5.448V-296h-4.041C138.251-296,137.23-295.932,136.889-295.682Z" transform="translate(-92.371 -166.965)" fill="#ff6f00"/>
    <path id="Path_285" data-name="Path 285" d="M181.739-239.569a8.917,8.917,0,0,0-5.9,7.264l-.136,1.385h3.927v-.636c.023-2.02,2.543-4.586,4.54-4.586h.681V-240H183.9A9.062,9.062,0,0,0,181.739-239.569Z" transform="translate(-135.427 -210.253)" fill="#ff6f00"/>
    <path id="Path_286" data-name="Path 286" d="M32-142.184v1.816h3.632V-144H32Z" transform="translate(-24.349 -284.459)" fill="#ff6f00"/>
    <path id="Path_287" data-name="Path 287" d="M64-142.184v1.816H74.9V-144H64Z" transform="translate(-49.085 -284.459)" fill="#ff6f00"/>
  </g>
</svg>
